<svg width="112" height="53" viewBox="0 0 112 53" fill="none" xmlns="http://www.w3.org/2000/svg">
<path d="M1.93164 8.49414C1.81445 8.55273 1.70312 8.61719 1.59766 8.6875C1.50391 8.74609 1.41016 8.80469 1.31641 8.86328C1.22266 8.91016 1.12891 8.94531 1.03516 8.96875C0.941406 8.99219 0.841797 8.99219 0.736328 8.96875C0.666016 8.96875 0.607422 8.92773 0.560547 8.8457C0.513672 8.75195 0.478516 8.65234 0.455078 8.54688C0.419922 8.42969 0.396484 8.31836 0.384766 8.21289C0.373047 8.0957 0.373047 8.00781 0.384766 7.94922L2.07227 6.98242L2.17773 2.48242C2.20117 2.33008 2.29492 2.27148 2.45898 2.30664C2.62305 2.33008 2.79297 2.36523 2.96875 2.41211C2.99219 2.41211 3.02734 2.42383 3.07422 2.44727C3.13281 2.45898 3.17383 2.4707 3.19727 2.48242C3.17383 2.79883 3.14453 3.14453 3.10938 3.51953C3.08594 3.88281 3.0625 4.25195 3.03906 4.62695C3.01562 4.99023 2.99805 5.34766 2.98633 5.69922C2.98633 6.05078 3.00391 6.36719 3.03906 6.64844L5.67578 5.91016C5.72266 5.89844 5.75781 5.93359 5.78125 6.01562C5.81641 6.08594 5.8457 6.17383 5.86914 6.2793C5.9043 6.38477 5.92773 6.49023 5.93945 6.5957C5.95117 6.70117 5.95703 6.75391 5.95703 6.75391L2.96875 8.01953C2.96875 8.125 2.97461 8.37695 2.98633 8.77539C3.00977 9.17383 3.0332 9.64844 3.05664 10.1992C3.08008 10.7383 3.10352 11.3242 3.12695 11.957C3.15039 12.5781 3.17383 13.1582 3.19727 13.6973C3.2207 14.2363 3.23828 14.7109 3.25 15.1211C3.26172 15.5195 3.26758 15.7715 3.26758 15.877C3.24414 16.2285 3.13867 16.4043 2.95117 16.4043C2.77539 16.4043 2.58203 16.3164 2.37109 16.1406L1.93164 8.49414ZM12.6016 8.31836C12.168 8.1543 11.752 8.21875 11.3535 8.51172C10.9551 8.80469 10.5742 9.2207 10.2109 9.75977C9.84766 10.2871 9.50195 10.8906 9.17383 11.5703C8.8457 12.25 8.54102 12.8945 8.25977 13.5039C7.97852 14.1133 7.7207 14.6348 7.48633 15.0684C7.26367 15.502 7.05859 15.7422 6.87109 15.7891C6.73047 15.7891 6.61914 15.7656 6.53711 15.7188C6.4668 15.6602 6.43164 15.5254 6.43164 15.3145V2.95703C6.43164 2.85156 6.47266 2.78711 6.55469 2.76367C6.64844 2.74023 6.74805 2.73438 6.85352 2.74609C6.95898 2.75781 7.05859 2.78711 7.15234 2.83398C7.24609 2.86914 7.30469 2.91016 7.32812 2.95703L7.55664 12.8535C7.68555 12.6426 7.80273 12.3496 7.9082 11.9746C8.02539 11.5879 8.16016 11.1777 8.3125 10.7441C8.46484 10.2988 8.64062 9.85938 8.83984 9.42578C9.05078 8.98047 9.30859 8.58203 9.61328 8.23047C9.91797 7.87891 10.2871 7.60938 10.7207 7.42188C11.166 7.22266 11.6875 7.15234 12.2852 7.21094C12.6836 7.21094 13.0059 7.33984 13.252 7.59766C13.498 7.84375 13.627 8.17188 13.6387 8.58203L13.8145 15.5957C13.8145 15.6426 13.8027 15.7129 13.7793 15.8066C13.7676 15.8887 13.7207 15.959 13.6387 16.0176C13.5684 16.0879 13.4629 16.1289 13.3223 16.1406C13.1934 16.1641 13.0234 16.1348 12.8125 16.0527L12.6016 8.31836ZM14.9746 15.6484C14.9746 14.8867 14.957 14.084 14.9219 13.2402C14.8984 12.3965 14.8691 11.5469 14.834 10.6914C14.8105 9.82422 14.8047 8.97461 14.8164 8.14258C14.8281 7.31055 14.8809 6.53125 14.9746 5.80469C14.998 5.79297 15.0508 5.78711 15.1328 5.78711C15.2266 5.77539 15.291 5.76953 15.3262 5.76953C15.4902 5.76953 15.6191 5.79883 15.7129 5.85742C15.8184 5.9043 15.8711 6.01562 15.8711 6.19141C15.8711 6.88281 15.8652 7.63867 15.8535 8.45898C15.8535 9.26758 15.8477 10.0938 15.8359 10.9375C15.8359 11.7695 15.8359 12.5957 15.8359 13.416C15.8359 14.2363 15.8477 14.9805 15.8711 15.6484C15.8828 15.8477 15.8418 15.9766 15.748 16.0352C15.666 16.1055 15.5605 16.1406 15.4316 16.1406C15.291 16.1406 15.1738 16.1055 15.0801 16.0352C14.9863 15.9766 14.9512 15.8477 14.9746 15.6484ZM14.5879 3.0625C14.5879 2.92188 14.6348 2.82812 14.7285 2.78125C14.8223 2.73438 14.9277 2.71094 15.0449 2.71094C15.2793 2.71094 15.4258 2.78711 15.4844 2.93945C15.543 3.0918 15.5723 3.26758 15.5723 3.4668C15.502 3.5957 15.4141 3.68945 15.3086 3.74805C15.2031 3.79492 15.0918 3.80664 14.9746 3.7832C14.8691 3.74805 14.7754 3.67188 14.6934 3.55469C14.623 3.4375 14.5879 3.27344 14.5879 3.0625ZM18.4727 15.7363C18.4727 15.748 18.5957 15.6777 18.8418 15.5254C19.0996 15.373 19.3984 15.1738 19.7383 14.9277C20.0898 14.6699 20.4473 14.3945 20.8105 14.1016C21.1738 13.7969 21.4727 13.5098 21.707 13.2402C21.9414 12.9707 22.0645 12.7422 22.0762 12.5547C22.0996 12.3555 21.9414 12.2266 21.6016 12.168C21.1797 12.1094 20.8223 12.1152 20.5293 12.1855C20.248 12.2559 19.9902 12.3379 19.7559 12.4316C19.5215 12.5254 19.2988 12.6133 19.0879 12.6953C18.8887 12.7773 18.666 12.8066 18.4199 12.7832C17.9043 12.7832 17.5469 12.625 17.3477 12.3086C17.1602 11.9805 17.0664 11.541 17.0664 10.9902C17.0664 10.4395 17.1895 9.91797 17.4355 9.42578C17.6816 8.92188 17.998 8.48828 18.3848 8.125C18.7715 7.76172 19.2168 7.47461 19.7207 7.26367C20.2246 7.04102 20.7402 6.92969 21.2676 6.92969C21.4785 6.92969 21.6602 6.94727 21.8125 6.98242C21.9648 7.01758 22.041 7.15234 22.041 7.38672C22.041 7.55078 21.9707 7.70898 21.8301 7.86133C21.6895 8.00195 21.5312 8.07227 21.3555 8.07227C21.3438 8.07227 21.3145 8.06641 21.2676 8.05469C21.2207 8.03125 21.1738 8.00195 21.127 7.9668C21.0801 7.93164 21.0332 7.9082 20.9863 7.89648C20.9395 7.87305 20.9102 7.86133 20.8984 7.86133C20.5234 7.75586 20.1602 7.80859 19.8086 8.01953C19.457 8.23047 19.1406 8.51758 18.8594 8.88086C18.5898 9.23242 18.373 9.61914 18.209 10.041C18.0449 10.4512 17.9629 10.8203 17.9629 11.1484C17.9629 11.2773 17.9863 11.3828 18.0332 11.4648C18.0918 11.5352 18.1621 11.5879 18.2441 11.623C18.3379 11.6582 18.4375 11.6816 18.543 11.6934C18.6602 11.6934 18.7773 11.6934 18.8945 11.6934C19.1289 11.6934 19.3633 11.6582 19.5977 11.5879C19.8438 11.5176 20.0781 11.4355 20.3008 11.3418C20.5352 11.248 20.7695 11.166 21.0039 11.0957C21.25 11.0254 21.502 10.9902 21.7598 10.9902C21.877 10.9902 22.0059 11.0254 22.1465 11.0957C22.2871 11.1543 22.416 11.248 22.5332 11.377C22.6504 11.4941 22.75 11.6348 22.832 11.7988C22.9141 11.9512 22.9609 12.1211 22.9727 12.3086C23.043 12.4727 23.0195 12.6895 22.9023 12.959C22.7969 13.2285 22.6328 13.5156 22.4102 13.8203C22.1875 14.125 21.918 14.4355 21.6016 14.752C21.2852 15.0566 20.9688 15.3379 20.6523 15.5957C20.3359 15.8418 20.0254 16.041 19.7207 16.1934C19.416 16.3574 19.1582 16.4336 18.9473 16.4219C18.7129 16.4219 18.5723 16.3516 18.5254 16.2109C18.4902 16.0703 18.4727 15.9121 18.4727 15.7363ZM31.7793 11.957C31.8145 11.5352 31.8496 11.0781 31.8848 10.5859C31.9199 10.082 31.9727 9.58398 32.043 9.0918C32.125 8.59961 32.2246 8.13086 32.3418 7.68555C32.4707 7.24023 32.6348 6.84766 32.834 6.50781C33.0449 6.15625 33.3027 5.88086 33.6074 5.68164C33.9121 5.4707 34.2812 5.37109 34.7148 5.38281C35.0078 5.38281 35.2305 5.50586 35.3828 5.75195C35.5469 5.99805 35.6582 6.29688 35.7168 6.64844C35.7871 7 35.8223 7.36328 35.8223 7.73828C35.834 8.10156 35.8398 8.40039 35.8398 8.63477C35.6055 8.63477 35.4121 8.53516 35.2598 8.33594C35.1074 8.125 34.9902 7.88477 34.9082 7.61523C34.8262 7.3457 34.7676 7.08203 34.7324 6.82422L34.6797 6.31445C34.668 6.31445 34.6445 6.31445 34.6094 6.31445C34.5859 6.30273 34.5684 6.29688 34.5566 6.29688C34.3574 6.29688 34.1699 6.4082 33.9941 6.63086C33.8301 6.85352 33.6719 7.14062 33.5195 7.49219C33.3789 7.83203 33.2559 8.21875 33.1504 8.65234C33.0449 9.07422 32.957 9.49023 32.8867 9.90039C32.8164 10.3105 32.7578 10.6914 32.7109 11.043C32.6758 11.3828 32.6582 11.6465 32.6582 11.834C32.6348 12.1387 32.6348 12.4727 32.6582 12.8359C32.6816 13.1992 32.752 13.5391 32.8691 13.8555C32.9863 14.1719 33.1504 14.4473 33.3613 14.6816C33.5723 14.9043 33.8535 15.0566 34.2051 15.1387C34.6387 15.1387 34.9902 15.0801 35.2598 14.9629C35.5293 14.8457 35.7461 14.6875 35.9102 14.4883C36.0859 14.2891 36.2207 14.0664 36.3145 13.8203C36.4082 13.5742 36.4961 13.3223 36.5781 13.0645C36.6719 12.7949 36.7656 12.5312 36.8594 12.2734C36.9531 12.0156 37.0879 11.7754 37.2637 11.5527C37.4043 11.5176 37.5039 11.5234 37.5625 11.5703C37.6328 11.6055 37.6797 11.6582 37.7031 11.7285C37.7266 11.7988 37.7383 11.8809 37.7383 11.9746V12.168C37.7383 12.6602 37.6562 13.1348 37.4922 13.5918C37.3281 14.0488 37.0879 14.459 36.7715 14.8223C36.4551 15.1738 36.0742 15.4609 35.6289 15.6836C35.1953 15.8945 34.6973 16 34.1348 16C33.666 16 33.2734 15.8535 32.957 15.5605C32.6523 15.2559 32.4121 14.8926 32.2363 14.4707C32.0723 14.0488 31.9551 13.6094 31.8848 13.1523C31.8145 12.6836 31.7793 12.2852 31.7793 11.957ZM38.793 13.5918C38.7109 13.0527 38.6699 12.5312 38.6699 12.0273C38.6699 11.5117 38.6992 10.9902 38.7578 10.4629C38.8281 9.93555 38.9219 9.39062 39.0391 8.82812C39.168 8.25391 39.3145 7.63867 39.4785 6.98242C39.4785 6.85352 39.5137 6.73633 39.584 6.63086C39.6543 6.51367 39.748 6.41992 39.8652 6.34961C39.9824 6.26758 40.1055 6.20312 40.2344 6.15625C40.3633 6.10938 40.4863 6.08594 40.6035 6.08594C40.8613 6.08594 41.0957 6.16797 41.3066 6.33203C41.5176 6.49609 41.7051 6.69531 41.8691 6.92969C42.0449 7.16406 42.1914 7.41602 42.3086 7.68555C42.4375 7.94336 42.543 8.16602 42.625 8.35352C42.7188 8.76367 42.7832 9.23242 42.8184 9.75977C42.8652 10.2754 42.8711 10.8027 42.8359 11.3418C42.8008 11.8809 42.7188 12.4141 42.5898 12.9414C42.4609 13.457 42.2793 13.9316 42.0449 14.3652C41.8105 14.7988 41.5059 15.1621 41.1309 15.4551C40.7676 15.748 40.334 15.9297 39.8301 16C39.5605 16 39.3555 15.9121 39.2148 15.7363C39.0742 15.5488 38.9688 15.3262 38.8984 15.0684C38.8398 14.7988 38.8047 14.5293 38.793 14.2598C38.793 13.9902 38.793 13.7676 38.793 13.5918ZM39.6895 13.5391C39.6895 13.6562 39.6895 13.7676 39.6895 13.873C39.7012 13.9785 39.7129 14.084 39.7246 14.1895C39.748 14.2832 39.7715 14.3887 39.7949 14.5059C39.8301 14.6113 39.8711 14.7344 39.918 14.875H40.0234C40.3047 14.875 40.5449 14.7812 40.7441 14.5938C40.9434 14.4062 41.1133 14.166 41.2539 13.873C41.3945 13.5684 41.5117 13.2344 41.6055 12.8711C41.6992 12.4961 41.7695 12.1328 41.8164 11.7812C41.875 11.418 41.9102 11.084 41.9219 10.7793C41.9453 10.4629 41.957 10.2109 41.957 10.0234V9.67188C41.957 9.51953 41.9512 9.34961 41.9395 9.16211C41.9277 8.96289 41.9043 8.76367 41.8691 8.56445C41.8457 8.35352 41.8047 8.16602 41.7461 8.00195C41.6875 7.82617 41.6113 7.68555 41.5176 7.58008C41.4238 7.47461 41.3008 7.42188 41.1484 7.42188C40.8906 7.33984 40.668 7.35742 40.4805 7.47461C40.3047 7.5918 40.1582 7.79102 40.041 8.07227C39.9355 8.3418 39.8535 8.67578 39.7949 9.07422C39.7363 9.47266 39.7012 9.91211 39.6895 10.3926C39.6777 10.873 39.6719 11.3828 39.6719 11.9219C39.6836 12.4609 39.6895 13 39.6895 13.5391ZM48.0742 13.9609C48.0273 14.1016 47.9102 14.2949 47.7227 14.541C47.5469 14.7754 47.3359 15.0156 47.0898 15.2617C46.8438 15.4961 46.5859 15.707 46.3164 15.8945C46.0586 16.0703 45.8301 16.1582 45.6309 16.1582C45.2559 16.1582 44.9453 15.9824 44.6992 15.6309C44.4648 15.2793 44.2832 14.8281 44.1543 14.2773C44.0254 13.7266 43.9375 13.1172 43.8906 12.4492C43.8438 11.7695 43.8145 11.1074 43.8027 10.4629C43.791 9.81836 43.7852 9.23242 43.7852 8.70508C43.7852 8.17773 43.7676 7.7793 43.7324 7.50977C43.7793 7.39258 43.8379 7.32227 43.9082 7.29883C43.9902 7.27539 44.084 7.26367 44.1895 7.26367C44.2832 7.26367 44.3652 7.27539 44.4355 7.29883C44.5176 7.32227 44.5879 7.39258 44.6465 7.50977C44.6465 7.63867 44.6465 7.85547 44.6465 8.16016C44.6582 8.46484 44.6758 8.81055 44.6992 9.19727C44.7227 9.57227 44.7461 9.9707 44.7695 10.3926C44.793 10.8027 44.8105 11.1953 44.8223 11.5703C44.8457 11.9453 44.8633 12.2852 44.875 12.5898C44.8984 12.8828 44.916 13.0996 44.9277 13.2402C44.9395 13.3223 44.9512 13.457 44.9629 13.6445C44.9863 13.832 45.0156 14.0312 45.0508 14.2422C45.0977 14.4414 45.1504 14.623 45.209 14.7871C45.2793 14.9512 45.3672 15.0391 45.4727 15.0508C45.6484 15.0508 45.8242 14.9746 46 14.8223C46.1875 14.6699 46.3691 14.4766 46.5449 14.2422C46.7207 14.0078 46.8848 13.75 47.0371 13.4688C47.1895 13.1875 47.3242 12.918 47.4414 12.6602C47.5703 12.3906 47.6641 12.1504 47.7227 11.9395C47.793 11.7285 47.834 11.5762 47.8457 11.4824C47.8691 11.2832 47.8926 11.002 47.916 10.6387C47.9395 10.2637 47.957 9.86523 47.9688 9.44336C47.9805 9.02148 47.9863 8.62305 47.9863 8.24805C47.998 7.87305 48.0039 7.58594 48.0039 7.38672L48.9707 7.43945C48.9824 8.38867 48.9766 9.25 48.9531 10.0234C48.9297 10.7852 48.9238 11.5059 48.9355 12.1855C48.9473 12.8535 49 13.5039 49.0938 14.1367C49.1875 14.7695 49.3574 15.4258 49.6035 16.1055C49.5684 16.1406 49.498 16.1875 49.3926 16.2461C49.2871 16.3164 49.2109 16.3516 49.1641 16.3516C48.8711 16.3516 48.6719 16.252 48.5664 16.0527C48.4727 15.8652 48.4082 15.6426 48.373 15.3848C48.3496 15.1152 48.3262 14.8516 48.3027 14.5938C48.291 14.3242 48.2148 14.1133 48.0742 13.9609ZM50.957 15.1035C51.0391 14.5645 51.0918 13.8906 51.1152 13.082C51.1504 12.2734 51.1621 11.4121 51.1504 10.498C51.1504 9.58398 51.1328 8.64062 51.0977 7.66797C51.0625 6.69531 51.0156 5.77539 50.957 4.9082C50.8984 4.0293 50.8281 3.24414 50.7461 2.55273C50.6758 1.86133 50.5996 1.31641 50.5176 0.917969C50.623 0.847656 50.7109 0.794922 50.7812 0.759766C50.8633 0.712891 50.957 0.689453 51.0625 0.689453C51.1445 0.689453 51.2148 0.707031 51.2734 0.742188C51.332 0.765625 51.3789 0.824219 51.4141 0.917969C51.6484 3.21484 51.8066 5.5293 51.8887 7.86133C51.9824 10.1934 52.0527 12.5137 52.0996 14.8223C52.0996 14.9277 52.0996 15.0742 52.0996 15.2617C52.0996 15.4375 52.0938 15.5312 52.082 15.543C51.918 15.625 51.7715 15.666 51.6426 15.666C51.5137 15.6543 51.3965 15.6191 51.291 15.5605C51.1855 15.4902 51.1035 15.4141 51.0449 15.332C50.9863 15.25 50.957 15.1738 50.957 15.1035ZM56.916 12.7832C56.7988 13.0527 56.6465 13.3633 56.459 13.7148C56.2832 14.0664 56.0723 14.4004 55.8262 14.7168C55.5918 15.0332 55.3164 15.3027 55 15.5254C54.6836 15.748 54.332 15.8594 53.9453 15.8594C53.7695 15.8594 53.6289 15.8418 53.5234 15.8066C53.4297 15.7598 53.3418 15.6953 53.2598 15.6133C53.1895 15.5312 53.1191 15.4316 53.0488 15.3145C52.9902 15.1973 52.9141 15.0684 52.8203 14.9277C52.7852 14.3535 52.7617 13.7383 52.75 13.082C52.75 12.4141 52.7852 11.752 52.8555 11.0957C52.9258 10.4277 53.043 9.80078 53.207 9.21484C53.3828 8.62891 53.623 8.13086 53.9277 7.7207C54.2441 7.31055 54.6367 7.01758 55.1055 6.8418C55.5742 6.66602 56.1426 6.6543 56.8105 6.80664C56.8457 6.47852 56.8516 6.03906 56.8281 5.48828C56.8047 4.9375 56.7695 4.35742 56.7227 3.74805C56.6758 3.13867 56.6289 2.55273 56.582 1.99023C56.5352 1.41602 56.5059 0.947266 56.4941 0.583984C56.4941 0.478516 56.541 0.402344 56.6348 0.355469C56.7402 0.296875 56.8516 0.261719 56.9688 0.25C57.0859 0.238281 57.1973 0.238281 57.3027 0.25C57.4199 0.261719 57.4961 0.279297 57.5312 0.302734C57.5078 1.74414 57.502 3.16211 57.5137 4.55664C57.5254 5.93945 57.5371 7.32227 57.5488 8.70508C57.5723 10.0762 57.5957 11.4414 57.6191 12.8008C57.6426 14.1602 57.6543 15.5195 57.6543 16.8789C57.6543 17.0078 57.6426 17.1426 57.6191 17.2832C57.6074 17.4355 57.5078 17.5117 57.3203 17.5117C57.25 17.5117 57.1797 17.4883 57.1094 17.4414C57.0391 17.4062 56.9922 17.3477 56.9688 17.2656L56.916 12.7832ZM56.1602 7.68555C55.7969 7.66211 55.457 7.80859 55.1406 8.125C54.8359 8.42969 54.5664 8.82812 54.332 9.32031C54.1094 9.8125 53.9277 10.3574 53.7871 10.9551C53.6465 11.541 53.5586 12.1094 53.5234 12.6602C53.5 13.1992 53.5352 13.6797 53.6289 14.1016C53.7344 14.5234 53.916 14.8105 54.1738 14.9629C54.4316 14.9629 54.6719 14.8633 54.8945 14.6641C55.1172 14.4531 55.3223 14.1895 55.5098 13.873C55.6973 13.5566 55.8613 13.2051 56.002 12.8184C56.1426 12.4199 56.2598 12.0391 56.3535 11.6758C56.459 11.3125 56.5352 10.9844 56.582 10.6914C56.6406 10.3867 56.6699 10.1582 56.6699 10.0059C56.6699 9.88867 56.6758 9.70117 56.6875 9.44336C56.6992 9.18555 56.6934 8.92773 56.6699 8.66992C56.6465 8.41211 56.5938 8.18359 56.5117 7.98438C56.4414 7.78516 56.3242 7.68555 56.1602 7.68555ZM67.1465 15.877C67.0879 14.9512 67.0645 13.9668 67.0762 12.9238C67.0996 11.8809 67.1289 10.7559 67.1641 9.54883C67.1992 8.3418 67.2285 7.03516 67.252 5.62891C67.2871 4.21094 67.293 2.66406 67.2695 0.988281C67.3984 0.988281 67.5332 0.982422 67.6738 0.970703C67.8145 0.947266 67.9375 0.941406 68.043 0.953125C68.1602 0.964844 68.2539 1 68.3242 1.05859C68.4062 1.11719 68.4473 1.22266 68.4473 1.375C68.4473 1.80859 68.4297 2.3125 68.3945 2.88672C68.3711 3.44922 68.3359 4.07031 68.2891 4.75C68.2422 5.41797 68.2012 6.13867 68.166 6.91211C68.1426 7.68555 68.1309 8.5 68.1309 9.35547C68.541 8.81641 68.9219 8.37695 69.2734 8.03711C69.625 7.69727 69.959 7.42773 70.2754 7.22852C70.5918 7.01758 70.9023 6.88867 71.207 6.8418C71.5117 6.7832 71.8105 6.76562 72.1035 6.78906C72.4434 6.78906 72.7188 6.88281 72.9297 7.07031C73.1523 7.25781 73.3223 7.49219 73.4395 7.77344C73.5566 8.05469 73.6387 8.37109 73.6855 8.72266C73.7324 9.0625 73.7559 9.39648 73.7559 9.72461C73.7559 9.95898 73.7383 10.2109 73.7031 10.4805C73.6797 10.7383 73.6152 11.0254 73.5098 11.3418C73.4043 11.6582 73.2402 11.9863 73.0176 12.3262C72.8066 12.6543 72.5078 13.0059 72.1211 13.3809C71.7344 13.7559 71.2422 14.1426 70.6445 14.541C70.0586 14.9395 69.3438 15.3496 68.5 15.7715C68.2188 15.8535 67.9902 15.9062 67.8145 15.9297C67.6504 15.9414 67.5156 15.9473 67.4102 15.9473C67.3164 15.9355 67.2461 15.9238 67.1992 15.9121C67.1641 15.9004 67.1465 15.8887 67.1465 15.877ZM67.9023 14.8223C67.9609 14.7871 68.1191 14.7109 68.377 14.5938C68.6348 14.4648 68.9395 14.3008 69.291 14.1016C69.6426 13.9023 70.0234 13.6621 70.4336 13.3809C70.8438 13.0996 71.2188 12.7715 71.5586 12.3965C71.9102 12.0215 72.209 11.5996 72.4551 11.1309C72.7012 10.6621 72.8477 10.1465 72.8945 9.58398C72.8945 9.41992 72.8711 9.24414 72.8242 9.05664C72.7773 8.86914 72.7012 8.69336 72.5957 8.5293C72.502 8.36523 72.3789 8.23047 72.2266 8.125C72.0742 8.00781 71.8926 7.94922 71.6816 7.94922C71.248 7.94922 70.8379 8.06641 70.4512 8.30078C70.0762 8.53516 69.7305 8.82812 69.4141 9.17969C69.0977 9.53125 68.8164 9.91211 68.5703 10.3223C68.3242 10.7207 68.125 11.0898 67.9727 11.4297L67.9023 14.8223ZM75.3379 12.2031C75.2793 12.2148 75.1914 12.2324 75.0742 12.2559C74.957 12.2793 74.834 12.2852 74.7051 12.2734C74.5762 12.2617 74.4648 12.2266 74.3711 12.168C74.2656 12.1094 74.2129 12.0098 74.2129 11.8691C74.2129 11.7871 74.2305 11.7285 74.2656 11.6934C74.3008 11.6582 74.3594 11.6055 74.4414 11.5352C74.6992 11.3242 74.916 11.0547 75.0918 10.7266C75.2793 10.3867 75.4492 10.0293 75.6016 9.6543C75.7539 9.26758 75.9121 8.88672 76.0762 8.51172C76.252 8.125 76.4512 7.7793 76.6738 7.47461C76.8965 7.16992 77.1719 6.92383 77.5 6.73633C77.8281 6.54883 78.2324 6.46094 78.7129 6.47266C78.9121 6.47266 79.1348 6.51953 79.3809 6.61328C79.627 6.70703 79.8555 6.83594 80.0664 7C80.2773 7.15234 80.4531 7.33984 80.5938 7.5625C80.7344 7.78516 80.8047 8.03125 80.8047 8.30078C80.8633 8.39453 80.8047 8.5293 80.6289 8.70508C80.4648 8.88086 80.2363 9.07422 79.9434 9.28516C79.6504 9.48438 79.3164 9.69531 78.9414 9.91797C78.5781 10.1289 78.2266 10.3281 77.8867 10.5156C77.5469 10.7031 77.248 10.8672 76.9902 11.0078C76.7324 11.1484 76.5625 11.2539 76.4805 11.3242C76.4219 11.4414 76.375 11.5762 76.3398 11.7285C76.3047 11.8809 76.2754 12.0273 76.252 12.168C76.2402 12.2969 76.2285 12.4199 76.2168 12.5371C76.2168 12.6426 76.2168 12.7246 76.2168 12.7832C76.2168 13.0059 76.2051 13.252 76.1816 13.5215C76.1699 13.791 76.1816 14.0488 76.2168 14.2949C76.2637 14.5293 76.3633 14.7285 76.5156 14.8926C76.668 15.0449 76.9258 15.1211 77.2891 15.1211C77.6758 15.1211 78.0391 15.0273 78.3789 14.8398C78.7188 14.6406 79.0352 14.4004 79.3281 14.1191C79.6211 13.8379 79.8848 13.5332 80.1191 13.2051C80.3652 12.877 80.582 12.5723 80.7695 12.291C80.9688 11.998 81.1445 11.7578 81.2969 11.5703C81.4492 11.3828 81.5781 11.2891 81.6836 11.2891C81.8008 11.2891 81.9238 11.3125 82.0527 11.3594C82.1934 11.3945 82.2637 11.4883 82.2637 11.6406C82.2637 11.8516 82.1758 12.1035 82 12.3965C81.8359 12.6895 81.6133 13 81.332 13.3281C81.0625 13.6562 80.7461 13.9844 80.3828 14.3125C80.0312 14.6289 79.6738 14.916 79.3105 15.1738C78.9473 15.4199 78.5898 15.625 78.2383 15.7891C77.8867 15.9414 77.5762 16.0176 77.3066 16.0176C76.7793 16.0176 76.3809 15.8887 76.1113 15.6309C75.8418 15.373 75.6484 15.0508 75.5312 14.6641C75.4258 14.2773 75.3672 13.8672 75.3555 13.4336C75.3555 12.9883 75.3496 12.5781 75.3379 12.2031ZM78.5723 7.45703C78.373 7.45703 78.1621 7.55664 77.9395 7.75586C77.7168 7.94336 77.5059 8.17773 77.3066 8.45898C77.1191 8.72852 76.9609 9.00977 76.832 9.30273C76.7148 9.58398 76.6562 9.81836 76.6562 10.0059C76.832 10.0059 77.084 9.94141 77.4121 9.8125C77.752 9.67188 78.0859 9.50195 78.4141 9.30273C78.7422 9.10352 79.0293 8.89258 79.2754 8.66992C79.5215 8.44727 79.6445 8.23633 79.6445 8.03711C79.6445 7.93164 79.6035 7.84375 79.5215 7.77344C79.4395 7.70312 79.3398 7.64453 79.2227 7.59766C79.1172 7.55078 79.0059 7.51562 78.8887 7.49219C78.7715 7.46875 78.666 7.45703 78.5723 7.45703ZM95.7637 15.9297L91.2285 8.66992C91.2168 8.6582 91.2051 8.61719 91.1934 8.54688C91.1816 8.46484 91.1758 8.40039 91.1758 8.35352C91.1758 8.20117 91.1992 8.07227 91.2461 7.9668C91.3047 7.84961 91.4453 7.79102 91.668 7.79102C91.7148 7.79102 91.7969 7.82031 91.9141 7.87891C92.0312 7.92578 92.1016 7.97266 92.125 8.01953C92.3828 8.42969 92.6465 8.88672 92.916 9.39062C93.1973 9.89453 93.4844 10.3984 93.7773 10.9023C94.082 11.4062 94.3984 11.8926 94.7266 12.3613C95.0547 12.8184 95.4004 13.2109 95.7637 13.5391L96.1855 6.64844C96.1973 6.64844 96.2266 6.64844 96.2734 6.64844C96.332 6.63672 96.373 6.63086 96.3965 6.63086C96.502 6.63086 96.6074 6.64844 96.7129 6.68359C96.8184 6.70703 96.8945 6.7832 96.9414 6.91211C96.9531 7.33398 96.9531 7.85547 96.9414 8.47656C96.9414 9.09766 96.9297 9.73633 96.9062 10.3926C96.8945 11.0488 96.877 11.6816 96.8535 12.291C96.8418 12.8887 96.8301 13.3691 96.8184 13.7324C96.8066 13.9668 96.7832 14.3184 96.748 14.7871C96.7246 15.2559 96.6895 15.7832 96.6426 16.3691C96.6074 16.9668 96.5605 17.5938 96.502 18.25C96.4551 18.9062 96.4082 19.5273 96.3613 20.1133C96.3145 20.6992 96.2734 21.2266 96.2383 21.6953C96.2031 22.1758 96.1738 22.5215 96.1504 22.7324H95.2363L95.7637 15.9297ZM97.7676 13.5918C97.6855 13.0527 97.6445 12.5312 97.6445 12.0273C97.6445 11.5117 97.6738 10.9902 97.7324 10.4629C97.8027 9.93555 97.8965 9.39062 98.0137 8.82812C98.1426 8.25391 98.2891 7.63867 98.4531 6.98242C98.4531 6.85352 98.4883 6.73633 98.5586 6.63086C98.6289 6.51367 98.7227 6.41992 98.8398 6.34961C98.957 6.26758 99.0801 6.20312 99.209 6.15625C99.3379 6.10938 99.4609 6.08594 99.5781 6.08594C99.8359 6.08594 100.07 6.16797 100.281 6.33203C100.492 6.49609 100.68 6.69531 100.844 6.92969C101.02 7.16406 101.166 7.41602 101.283 7.68555C101.412 7.94336 101.518 8.16602 101.6 8.35352C101.693 8.76367 101.758 9.23242 101.793 9.75977C101.84 10.2754 101.846 10.8027 101.811 11.3418C101.775 11.8809 101.693 12.4141 101.564 12.9414C101.436 13.457 101.254 13.9316 101.02 14.3652C100.785 14.7988 100.48 15.1621 100.105 15.4551C99.7422 15.748 99.3086 15.9297 98.8047 16C98.5352 16 98.3301 15.9121 98.1895 15.7363C98.0488 15.5488 97.9434 15.3262 97.873 15.0684C97.8145 14.7988 97.7793 14.5293 97.7676 14.2598C97.7676 13.9902 97.7676 13.7676 97.7676 13.5918ZM98.6641 13.5391C98.6641 13.6562 98.6641 13.7676 98.6641 13.873C98.6758 13.9785 98.6875 14.084 98.6992 14.1895C98.7227 14.2832 98.7461 14.3887 98.7695 14.5059C98.8047 14.6113 98.8457 14.7344 98.8926 14.875H98.998C99.2793 14.875 99.5195 14.7812 99.7188 14.5938C99.918 14.4062 100.088 14.166 100.229 13.873C100.369 13.5684 100.486 13.2344 100.58 12.8711C100.674 12.4961 100.744 12.1328 100.791 11.7812C100.85 11.418 100.885 11.084 100.896 10.7793C100.92 10.4629 100.932 10.2109 100.932 10.0234V9.67188C100.932 9.51953 100.926 9.34961 100.914 9.16211C100.902 8.96289 100.879 8.76367 100.844 8.56445C100.82 8.35352 100.779 8.16602 100.721 8.00195C100.662 7.82617 100.586 7.68555 100.492 7.58008C100.398 7.47461 100.275 7.42188 100.123 7.42188C99.8652 7.33984 99.6426 7.35742 99.4551 7.47461C99.2793 7.5918 99.1328 7.79102 99.0156 8.07227C98.9102 8.3418 98.8281 8.67578 98.7695 9.07422C98.7109 9.47266 98.6758 9.91211 98.6641 10.3926C98.6523 10.873 98.6465 11.3828 98.6465 11.9219C98.6582 12.4609 98.6641 13 98.6641 13.5391ZM107.049 13.9609C107.002 14.1016 106.885 14.2949 106.697 14.541C106.521 14.7754 106.311 15.0156 106.064 15.2617C105.818 15.4961 105.561 15.707 105.291 15.8945C105.033 16.0703 104.805 16.1582 104.605 16.1582C104.23 16.1582 103.92 15.9824 103.674 15.6309C103.439 15.2793 103.258 14.8281 103.129 14.2773C103 13.7266 102.912 13.1172 102.865 12.4492C102.818 11.7695 102.789 11.1074 102.777 10.4629C102.766 9.81836 102.76 9.23242 102.76 8.70508C102.76 8.17773 102.742 7.7793 102.707 7.50977C102.754 7.39258 102.812 7.32227 102.883 7.29883C102.965 7.27539 103.059 7.26367 103.164 7.26367C103.258 7.26367 103.34 7.27539 103.41 7.29883C103.492 7.32227 103.562 7.39258 103.621 7.50977C103.621 7.63867 103.621 7.85547 103.621 8.16016C103.633 8.46484 103.65 8.81055 103.674 9.19727C103.697 9.57227 103.721 9.9707 103.744 10.3926C103.768 10.8027 103.785 11.1953 103.797 11.5703C103.82 11.9453 103.838 12.2852 103.85 12.5898C103.873 12.8828 103.891 13.0996 103.902 13.2402C103.914 13.3223 103.926 13.457 103.938 13.6445C103.961 13.832 103.99 14.0312 104.025 14.2422C104.072 14.4414 104.125 14.623 104.184 14.7871C104.254 14.9512 104.342 15.0391 104.447 15.0508C104.623 15.0508 104.799 14.9746 104.975 14.8223C105.162 14.6699 105.344 14.4766 105.52 14.2422C105.695 14.0078 105.859 13.75 106.012 13.4688C106.164 13.1875 106.299 12.918 106.416 12.6602C106.545 12.3906 106.639 12.1504 106.697 11.9395C106.768 11.7285 106.809 11.5762 106.82 11.4824C106.844 11.2832 106.867 11.002 106.891 10.6387C106.914 10.2637 106.932 9.86523 106.943 9.44336C106.955 9.02148 106.961 8.62305 106.961 8.24805C106.973 7.87305 106.979 7.58594 106.979 7.38672L107.945 7.43945C107.957 8.38867 107.951 9.25 107.928 10.0234C107.904 10.7852 107.898 11.5059 107.91 12.1855C107.922 12.8535 107.975 13.5039 108.068 14.1367C108.162 14.7695 108.332 15.4258 108.578 16.1055C108.543 16.1406 108.473 16.1875 108.367 16.2461C108.262 16.3164 108.186 16.3516 108.139 16.3516C107.846 16.3516 107.646 16.252 107.541 16.0527C107.447 15.8652 107.383 15.6426 107.348 15.3848C107.324 15.1152 107.301 14.8516 107.277 14.5938C107.266 14.3242 107.189 14.1133 107.049 13.9609ZM109.404 7.4043C109.404 6.32617 109.428 5.25977 109.475 4.20508C109.521 3.13867 109.58 2.04297 109.65 0.917969C109.686 0.824219 109.727 0.765625 109.773 0.742188C109.82 0.707031 109.885 0.689453 109.967 0.689453C110.084 0.689453 110.166 0.724609 110.213 0.794922C110.26 0.853516 110.289 0.923828 110.301 1.00586C110.324 1.08789 110.33 1.18164 110.318 1.28711C110.318 1.38086 110.318 1.46289 110.318 1.5332V6.91211C110.318 7.12305 110.336 7.3457 110.371 7.58008L110.477 8.2832C110.523 8.51758 110.553 8.74023 110.564 8.95117C110.588 9.15039 110.576 9.32031 110.529 9.46094C110.506 9.58984 110.436 9.70117 110.318 9.79492C110.213 9.88867 110.096 9.93555 109.967 9.93555C109.756 9.93555 109.609 9.83008 109.527 9.61914C109.445 9.4082 109.393 9.16211 109.369 8.88086C109.357 8.59961 109.357 8.31836 109.369 8.03711C109.393 7.75586 109.404 7.54492 109.404 7.4043ZM110.512 15.5781V15.2969C110.512 15.2383 110.518 15.1797 110.529 15.1211C110.541 15.0508 110.564 14.9922 110.6 14.9453C110.635 14.8984 110.688 14.875 110.758 14.875C110.992 14.875 111.127 14.9336 111.162 15.0508C111.209 15.1562 111.232 15.2852 111.232 15.4375C111.232 15.6016 111.209 15.7363 111.162 15.8418C111.127 15.9473 110.992 16 110.758 16C110.688 16 110.635 15.9766 110.6 15.9297C110.564 15.8828 110.541 15.8301 110.529 15.7715C110.518 15.7012 110.512 15.6367 110.512 15.5781ZM1.29883 34.6465C1.32227 34.5879 1.36914 34.5234 1.43945 34.4531C1.50977 34.3711 1.58594 34.2891 1.66797 34.207C1.76172 34.125 1.84961 34.0488 1.93164 33.9785C2.02539 33.8965 2.10742 33.8379 2.17773 33.8027C2.27148 33.873 2.34766 33.9609 2.40625 34.0664C2.47656 34.1719 2.55859 34.3535 2.65234 34.6113C2.74609 34.8574 2.85742 35.1973 2.98633 35.6309C3.12695 36.0645 3.30859 36.6445 3.53125 37.3711C3.75391 38.0977 4.0293 38.9941 4.35742 40.0605C4.69727 41.1152 5.10742 42.3867 5.58789 43.875C5.63477 43.8398 5.7168 43.6523 5.83398 43.3125C5.96289 42.9727 6.11523 42.5508 6.29102 42.0469C6.4668 41.5312 6.6543 40.9629 6.85352 40.3418C7.06445 39.709 7.26953 39.0762 7.46875 38.4434C7.66797 37.7988 7.85547 37.1895 8.03125 36.6152C8.21875 36.0293 8.37695 35.5254 8.50586 35.1035C8.54102 34.9395 8.56445 34.7812 8.57617 34.6289C8.59961 34.4648 8.62891 34.3184 8.66406 34.1895C8.69922 34.0605 8.75781 33.9551 8.83984 33.873C8.93359 33.7793 9.08594 33.7324 9.29688 33.7324C9.46094 33.6621 9.61328 33.7441 9.75391 33.9785C9.89453 34.2129 10.0352 34.5527 10.1758 34.998C10.3281 35.4434 10.4863 35.9648 10.6504 36.5625C10.8145 37.1484 10.9961 37.7637 11.1953 38.4082C11.4062 39.0527 11.6348 39.6973 11.8809 40.3418C12.1387 40.9746 12.4375 41.5547 12.7773 42.082L15.2559 31.957C15.2793 31.8633 15.3203 31.7871 15.3789 31.7285C15.4492 31.6699 15.5254 31.6406 15.6074 31.6406C15.7012 31.6406 15.7949 31.6816 15.8887 31.7637C15.9824 31.8457 16.0703 31.9805 16.1523 32.168L13.6914 42.082C13.6914 42.2344 13.6738 42.416 13.6387 42.627C13.6035 42.8262 13.5566 43.0254 13.498 43.2246C13.4395 43.4121 13.3691 43.5762 13.2871 43.7168C13.2168 43.8574 13.1289 43.9453 13.0234 43.9805C12.9297 44.0039 12.8242 43.9629 12.707 43.8574C12.5898 43.7402 12.4668 43.5176 12.3379 43.1895C11.6816 42.0293 11.0957 40.8223 10.5801 39.5684C10.0645 38.3027 9.5957 36.9668 9.17383 35.5605L6.92383 42.9785C6.85352 43.4941 6.74805 43.9102 6.60742 44.2266C6.47852 44.5312 6.33203 44.7598 6.16797 44.9121C6.01562 45.0645 5.85742 45.1582 5.69336 45.1934C5.5293 45.2285 5.38281 45.2344 5.25391 45.2109C5.125 45.1992 5.02539 45.1641 4.95508 45.1055C4.89648 45.0586 4.87891 45.0234 4.90234 45C4.63281 44.6367 4.39844 44.2031 4.19922 43.6992C4.01172 43.1836 3.83594 42.627 3.67188 42.0293C3.51953 41.4199 3.36719 40.7871 3.21484 40.1309C3.0625 39.4629 2.89844 38.8066 2.72266 38.1621C2.55859 37.5059 2.35938 36.8789 2.125 36.2812C1.89062 35.6836 1.61523 35.1387 1.29883 34.6465ZM17.7871 41.2031C17.7285 41.2148 17.6406 41.2324 17.5234 41.2559C17.4062 41.2793 17.2832 41.2852 17.1543 41.2734C17.0254 41.2617 16.9141 41.2266 16.8203 41.168C16.7148 41.1094 16.6621 41.0098 16.6621 40.8691C16.6621 40.7871 16.6797 40.7285 16.7148 40.6934C16.75 40.6582 16.8086 40.6055 16.8906 40.5352C17.1484 40.3242 17.3652 40.0547 17.541 39.7266C17.7285 39.3867 17.8984 39.0293 18.0508 38.6543C18.2031 38.2676 18.3613 37.8867 18.5254 37.5117C18.7012 37.125 18.9004 36.7793 19.123 36.4746C19.3457 36.1699 19.6211 35.9238 19.9492 35.7363C20.2773 35.5488 20.6816 35.4609 21.1621 35.4727C21.3613 35.4727 21.584 35.5195 21.8301 35.6133C22.0762 35.707 22.3047 35.8359 22.5156 36C22.7266 36.1523 22.9023 36.3398 23.043 36.5625C23.1836 36.7852 23.2539 37.0312 23.2539 37.3008C23.3125 37.3945 23.2539 37.5293 23.0781 37.7051C22.9141 37.8809 22.6855 38.0742 22.3926 38.2852C22.0996 38.4844 21.7656 38.6953 21.3906 38.918C21.0273 39.1289 20.6758 39.3281 20.3359 39.5156C19.9961 39.7031 19.6973 39.8672 19.4395 40.0078C19.1816 40.1484 19.0117 40.2539 18.9297 40.3242C18.8711 40.4414 18.8242 40.5762 18.7891 40.7285C18.7539 40.8809 18.7246 41.0273 18.7012 41.168C18.6895 41.2969 18.6777 41.4199 18.666 41.5371C18.666 41.6426 18.666 41.7246 18.666 41.7832C18.666 42.0059 18.6543 42.252 18.6309 42.5215C18.6191 42.791 18.6309 43.0488 18.666 43.2949C18.7129 43.5293 18.8125 43.7285 18.9648 43.8926C19.1172 44.0449 19.375 44.1211 19.7383 44.1211C20.125 44.1211 20.4883 44.0273 20.8281 43.8398C21.168 43.6406 21.4844 43.4004 21.7773 43.1191C22.0703 42.8379 22.334 42.5332 22.5684 42.2051C22.8145 41.877 23.0312 41.5723 23.2188 41.291C23.418 40.998 23.5938 40.7578 23.7461 40.5703C23.8984 40.3828 24.0273 40.2891 24.1328 40.2891C24.25 40.2891 24.373 40.3125 24.502 40.3594C24.6426 40.3945 24.7129 40.4883 24.7129 40.6406C24.7129 40.8516 24.625 41.1035 24.4492 41.3965C24.2852 41.6895 24.0625 42 23.7812 42.3281C23.5117 42.6562 23.1953 42.9844 22.832 43.3125C22.4805 43.6289 22.123 43.916 21.7598 44.1738C21.3965 44.4199 21.0391 44.625 20.6875 44.7891C20.3359 44.9414 20.0254 45.0176 19.7559 45.0176C19.2285 45.0176 18.8301 44.8887 18.5605 44.6309C18.291 44.373 18.0977 44.0508 17.9805 43.6641C17.875 43.2773 17.8164 42.8672 17.8047 42.4336C17.8047 41.9883 17.7988 41.5781 17.7871 41.2031ZM21.0215 36.457C20.8223 36.457 20.6113 36.5566 20.3887 36.7559C20.166 36.9434 19.9551 37.1777 19.7559 37.459C19.5684 37.7285 19.4102 38.0098 19.2812 38.3027C19.1641 38.584 19.1055 38.8184 19.1055 39.0059C19.2812 39.0059 19.5332 38.9414 19.8613 38.8125C20.2012 38.6719 20.5352 38.502 20.8633 38.3027C21.1914 38.1035 21.4785 37.8926 21.7246 37.6699C21.9707 37.4473 22.0938 37.2363 22.0938 37.0371C22.0938 36.9316 22.0527 36.8438 21.9707 36.7734C21.8887 36.7031 21.7891 36.6445 21.6719 36.5977C21.5664 36.5508 21.4551 36.5156 21.3379 36.4922C21.2207 36.4688 21.1152 36.457 21.0215 36.457ZM26.1719 38.25C26.1602 38.1562 26.1426 38.0098 26.1191 37.8105C26.0957 37.5996 26.0664 37.3711 26.0312 37.125C26.0078 36.8789 25.9785 36.6152 25.9434 36.334C25.9082 36.0527 25.873 35.7891 25.8379 35.543C25.8145 35.2852 25.791 35.0566 25.7676 34.8574C25.7441 34.6582 25.7266 34.5117 25.7148 34.418V34.2949C25.7148 34.1426 25.7441 34.0078 25.8027 33.8906C25.873 33.7734 25.9902 33.7148 26.1543 33.7148C26.3418 33.7148 26.4883 33.791 26.5938 33.9434C26.6992 34.0957 26.7754 34.2832 26.8223 34.5059C26.8809 34.7285 26.916 34.9746 26.9277 35.2441C26.9395 35.5137 26.9395 35.7715 26.9277 36.0176C26.9277 36.2637 26.916 36.4805 26.8926 36.668C26.8809 36.8438 26.875 36.9609 26.875 37.0195V37.4062C26.875 37.582 26.8691 37.7754 26.8574 37.9863C26.8574 38.1855 26.8516 38.373 26.8398 38.5488C26.8398 38.7246 26.8398 38.8477 26.8398 38.918C26.6641 38.9062 26.5117 38.8359 26.3828 38.707C26.2656 38.5781 26.1953 38.4258 26.1719 38.25ZM28.3867 36.5273V36.3867C28.3867 36.2695 28.4277 36.1875 28.5098 36.1406C28.6035 36.0938 28.709 36.0703 28.8262 36.0703C28.9199 36.0703 29.0078 36.082 29.0898 36.1055C29.1719 36.1172 29.2363 36.1816 29.2832 36.2988C29.3184 36.4746 29.3535 36.7207 29.3887 37.0371C29.4238 37.3418 29.4648 37.6816 29.5117 38.0566C29.5586 38.4316 29.6055 38.8301 29.6523 39.252C29.7109 39.6621 29.7637 40.0547 29.8105 40.4297C29.8691 40.793 29.9277 41.1211 29.9863 41.4141C30.0449 41.707 30.1094 41.9297 30.1797 42.082C30.1445 40.957 30.1797 39.9844 30.2852 39.1641C30.3906 38.332 30.5898 37.6582 30.8828 37.1426C31.1875 36.6152 31.5977 36.252 32.1133 36.0527C32.6406 35.8418 33.2969 35.7949 34.082 35.9121C34.4453 35.9121 34.627 36.1055 34.627 36.4922C34.627 36.6445 34.5273 36.75 34.3281 36.8086C34.1289 36.8555 33.9062 36.8906 33.6602 36.9141C33.4141 36.9258 33.1738 36.9434 32.9395 36.9668C32.7051 36.9902 32.5352 37.0488 32.4297 37.1426C32.0078 37.377 31.709 37.7402 31.5332 38.2324C31.3691 38.7246 31.252 39.3047 31.1816 39.9727C31.1113 40.6406 31.0586 41.373 31.0234 42.1699C31 42.9551 30.9238 43.7637 30.7949 44.5957C30.7949 44.7129 30.748 44.8008 30.6543 44.8594C30.5605 44.918 30.4434 44.9473 30.3027 44.9473C30.1738 44.9473 30.0449 44.918 29.916 44.8594C29.7988 44.8008 29.7051 44.7129 29.6348 44.5957L28.3867 36.5273ZM36.0332 41.2031C35.9746 41.2148 35.8867 41.2324 35.7695 41.2559C35.6523 41.2793 35.5293 41.2852 35.4004 41.2734C35.2715 41.2617 35.1602 41.2266 35.0664 41.168C34.9609 41.1094 34.9082 41.0098 34.9082 40.8691C34.9082 40.7871 34.9258 40.7285 34.9609 40.6934C34.9961 40.6582 35.0547 40.6055 35.1367 40.5352C35.3945 40.3242 35.6113 40.0547 35.7871 39.7266C35.9746 39.3867 36.1445 39.0293 36.2969 38.6543C36.4492 38.2676 36.6074 37.8867 36.7715 37.5117C36.9473 37.125 37.1465 36.7793 37.3691 36.4746C37.5918 36.1699 37.8672 35.9238 38.1953 35.7363C38.5234 35.5488 38.9277 35.4609 39.4082 35.4727C39.6074 35.4727 39.8301 35.5195 40.0762 35.6133C40.3223 35.707 40.5508 35.8359 40.7617 36C40.9727 36.1523 41.1484 36.3398 41.2891 36.5625C41.4297 36.7852 41.5 37.0312 41.5 37.3008C41.5586 37.3945 41.5 37.5293 41.3242 37.7051C41.1602 37.8809 40.9316 38.0742 40.6387 38.2852C40.3457 38.4844 40.0117 38.6953 39.6367 38.918C39.2734 39.1289 38.9219 39.3281 38.582 39.5156C38.2422 39.7031 37.9434 39.8672 37.6855 40.0078C37.4277 40.1484 37.2578 40.2539 37.1758 40.3242C37.1172 40.4414 37.0703 40.5762 37.0352 40.7285C37 40.8809 36.9707 41.0273 36.9473 41.168C36.9355 41.2969 36.9238 41.4199 36.9121 41.5371C36.9121 41.6426 36.9121 41.7246 36.9121 41.7832C36.9121 42.0059 36.9004 42.252 36.877 42.5215C36.8652 42.791 36.877 43.0488 36.9121 43.2949C36.959 43.5293 37.0586 43.7285 37.2109 43.8926C37.3633 44.0449 37.6211 44.1211 37.9844 44.1211C38.3711 44.1211 38.7344 44.0273 39.0742 43.8398C39.4141 43.6406 39.7305 43.4004 40.0234 43.1191C40.3164 42.8379 40.5801 42.5332 40.8145 42.2051C41.0605 41.877 41.2773 41.5723 41.4648 41.291C41.6641 40.998 41.8398 40.7578 41.9922 40.5703C42.1445 40.3828 42.2734 40.2891 42.3789 40.2891C42.4961 40.2891 42.6191 40.3125 42.748 40.3594C42.8887 40.3945 42.959 40.4883 42.959 40.6406C42.959 40.8516 42.8711 41.1035 42.6953 41.3965C42.5312 41.6895 42.3086 42 42.0273 42.3281C41.7578 42.6562 41.4414 42.9844 41.0781 43.3125C40.7266 43.6289 40.3691 43.916 40.0059 44.1738C39.6426 44.4199 39.2852 44.625 38.9336 44.7891C38.582 44.9414 38.2715 45.0176 38.002 45.0176C37.4746 45.0176 37.0762 44.8887 36.8066 44.6309C36.5371 44.373 36.3438 44.0508 36.2266 43.6641C36.1211 43.2773 36.0625 42.8672 36.0508 42.4336C36.0508 41.9883 36.0449 41.5781 36.0332 41.2031ZM39.2676 36.457C39.0684 36.457 38.8574 36.5566 38.6348 36.7559C38.4121 36.9434 38.2012 37.1777 38.002 37.459C37.8145 37.7285 37.6562 38.0098 37.5273 38.3027C37.4102 38.584 37.3516 38.8184 37.3516 39.0059C37.5273 39.0059 37.7793 38.9414 38.1074 38.8125C38.4473 38.6719 38.7812 38.502 39.1094 38.3027C39.4375 38.1035 39.7246 37.8926 39.9707 37.6699C40.2168 37.4473 40.3398 37.2363 40.3398 37.0371C40.3398 36.9316 40.2988 36.8438 40.2168 36.7734C40.1348 36.7031 40.0352 36.6445 39.918 36.5977C39.8125 36.5508 39.7012 36.5156 39.584 36.4922C39.4668 36.4688 39.3613 36.457 39.2676 36.457ZM58.252 37.3184C57.8184 37.1543 57.4023 37.2188 57.0039 37.5117C56.6055 37.8047 56.2246 38.2207 55.8613 38.7598C55.498 39.2871 55.1523 39.8906 54.8242 40.5703C54.4961 41.25 54.1914 41.8945 53.9102 42.5039C53.6289 43.1133 53.3711 43.6348 53.1367 44.0684C52.9141 44.502 52.709 44.7422 52.5215 44.7891C52.3809 44.7891 52.2695 44.7656 52.1875 44.7188C52.1172 44.6602 52.082 44.5254 52.082 44.3145V31.957C52.082 31.8516 52.123 31.7871 52.2051 31.7637C52.2988 31.7402 52.3984 31.7344 52.5039 31.7461C52.6094 31.7578 52.709 31.7871 52.8027 31.834C52.8965 31.8691 52.9551 31.9102 52.9785 31.957L53.207 41.8535C53.3359 41.6426 53.4531 41.3496 53.5586 40.9746C53.6758 40.5879 53.8105 40.1777 53.9629 39.7441C54.1152 39.2988 54.291 38.8594 54.4902 38.4258C54.7012 37.9805 54.959 37.582 55.2637 37.2305C55.5684 36.8789 55.9375 36.6094 56.3711 36.4219C56.8164 36.2227 57.3379 36.1523 57.9355 36.2109C58.334 36.2109 58.6562 36.3398 58.9023 36.5977C59.1484 36.8438 59.2773 37.1719 59.2891 37.582L59.4648 44.5957C59.4648 44.6426 59.4531 44.7129 59.4297 44.8066C59.418 44.8887 59.3711 44.959 59.2891 45.0176C59.2188 45.0879 59.1133 45.1289 58.9727 45.1406C58.8438 45.1641 58.6738 45.1348 58.4629 45.0527L58.252 37.3184ZM60.625 44.6484C60.625 43.8867 60.6074 43.084 60.5723 42.2402C60.5488 41.3965 60.5195 40.5469 60.4844 39.6914C60.4609 38.8242 60.4551 37.9746 60.4668 37.1426C60.4785 36.3105 60.5312 35.5312 60.625 34.8047C60.6484 34.793 60.7012 34.7871 60.7832 34.7871C60.877 34.7754 60.9414 34.7695 60.9766 34.7695C61.1406 34.7695 61.2695 34.7988 61.3633 34.8574C61.4688 34.9043 61.5215 35.0156 61.5215 35.1914C61.5215 35.8828 61.5156 36.6387 61.5039 37.459C61.5039 38.2676 61.498 39.0938 61.4863 39.9375C61.4863 40.7695 61.4863 41.5957 61.4863 42.416C61.4863 43.2363 61.498 43.9805 61.5215 44.6484C61.5332 44.8477 61.4922 44.9766 61.3984 45.0352C61.3164 45.1055 61.2109 45.1406 61.082 45.1406C60.9414 45.1406 60.8242 45.1055 60.7305 45.0352C60.6367 44.9766 60.6016 44.8477 60.625 44.6484ZM60.2383 32.0625C60.2383 31.9219 60.2852 31.8281 60.3789 31.7812C60.4727 31.7344 60.5781 31.7109 60.6953 31.7109C60.9297 31.7109 61.0762 31.7871 61.1348 31.9395C61.1934 32.0918 61.2227 32.2676 61.2227 32.4668C61.1523 32.5957 61.0645 32.6895 60.959 32.748C60.8535 32.7949 60.7422 32.8066 60.625 32.7832C60.5195 32.748 60.4258 32.6719 60.3438 32.5547C60.2734 32.4375 60.2383 32.2734 60.2383 32.0625ZM62.7344 36.5273V36.3867C62.7344 36.2695 62.7754 36.1875 62.8574 36.1406C62.9512 36.0938 63.0566 36.0703 63.1738 36.0703C63.2676 36.0703 63.3555 36.082 63.4375 36.1055C63.5195 36.1172 63.584 36.1816 63.6309 36.2988C63.666 36.4746 63.7012 36.7207 63.7363 37.0371C63.7715 37.3418 63.8125 37.6816 63.8594 38.0566C63.9062 38.4316 63.9531 38.8301 64 39.252C64.0586 39.6621 64.1113 40.0547 64.1582 40.4297C64.2168 40.793 64.2754 41.1211 64.334 41.4141C64.3926 41.707 64.457 41.9297 64.5273 42.082C64.4922 40.957 64.5273 39.9844 64.6328 39.1641C64.7383 38.332 64.9375 37.6582 65.2305 37.1426C65.5352 36.6152 65.9453 36.252 66.4609 36.0527C66.9883 35.8418 67.6445 35.7949 68.4297 35.9121C68.793 35.9121 68.9746 36.1055 68.9746 36.4922C68.9746 36.6445 68.875 36.75 68.6758 36.8086C68.4766 36.8555 68.2539 36.8906 68.0078 36.9141C67.7617 36.9258 67.5215 36.9434 67.2871 36.9668C67.0527 36.9902 66.8828 37.0488 66.7773 37.1426C66.3555 37.377 66.0566 37.7402 65.8809 38.2324C65.7168 38.7246 65.5996 39.3047 65.5293 39.9727C65.459 40.6406 65.4062 41.373 65.3711 42.1699C65.3477 42.9551 65.2715 43.7637 65.1426 44.5957C65.1426 44.7129 65.0957 44.8008 65.002 44.8594C64.9082 44.918 64.791 44.9473 64.6504 44.9473C64.5215 44.9473 64.3926 44.918 64.2637 44.8594C64.1465 44.8008 64.0527 44.7129 63.9824 44.5957L62.7344 36.5273ZM70.1523 44.6484C70.1523 43.8867 70.1348 43.084 70.0996 42.2402C70.0762 41.3965 70.0469 40.5469 70.0117 39.6914C69.9883 38.8242 69.9824 37.9746 69.9941 37.1426C70.0059 36.3105 70.0586 35.5312 70.1523 34.8047C70.1758 34.793 70.2285 34.7871 70.3105 34.7871C70.4043 34.7754 70.4688 34.7695 70.5039 34.7695C70.668 34.7695 70.7969 34.7988 70.8906 34.8574C70.9961 34.9043 71.0488 35.0156 71.0488 35.1914C71.0488 35.8828 71.043 36.6387 71.0312 37.459C71.0312 38.2676 71.0254 39.0938 71.0137 39.9375C71.0137 40.7695 71.0137 41.5957 71.0137 42.416C71.0137 43.2363 71.0254 43.9805 71.0488 44.6484C71.0605 44.8477 71.0195 44.9766 70.9258 45.0352C70.8438 45.1055 70.7383 45.1406 70.6094 45.1406C70.4688 45.1406 70.3516 45.1055 70.2578 45.0352C70.1641 44.9766 70.1289 44.8477 70.1523 44.6484ZM69.7656 32.0625C69.7656 31.9219 69.8125 31.8281 69.9062 31.7812C70 31.7344 70.1055 31.7109 70.2227 31.7109C70.457 31.7109 70.6035 31.7871 70.6621 31.9395C70.7207 32.0918 70.75 32.2676 70.75 32.4668C70.6797 32.5957 70.5918 32.6895 70.4863 32.748C70.3809 32.7949 70.2695 32.8066 70.1523 32.7832C70.0469 32.748 69.9531 32.6719 69.8711 32.5547C69.8008 32.4375 69.7656 32.2734 69.7656 32.0625ZM73 44.7715C72.8711 43.1895 72.7539 41.6074 72.6484 40.0254C72.5547 38.4316 72.4492 36.7793 72.332 35.0684C72.332 34.7871 72.4844 34.6465 72.7891 34.6465H72.9297C72.9648 34.6465 73.0059 34.6934 73.0527 34.7871C73.0996 34.8809 73.1465 35.0566 73.1934 35.3145C73.252 35.5605 73.3105 35.9414 73.3691 36.457C73.4395 36.9609 73.5215 37.623 73.6152 38.4434C73.709 39.2637 73.8145 40.2891 73.9316 41.5195C74.1777 40.7227 74.3711 39.9492 74.5117 39.1992C74.6523 38.4492 74.834 37.7695 75.0566 37.1602C75.2793 36.5391 75.5898 35.9941 75.9883 35.5254C76.3984 35.0566 76.9844 34.7109 77.7461 34.4883C78.168 34.5586 78.5078 34.8164 78.7656 35.2617C79.0234 35.6953 79.2285 36.2344 79.3809 36.8789C79.5332 37.5234 79.6387 38.2266 79.6973 38.9883C79.7559 39.7383 79.791 40.459 79.8027 41.1504C79.8145 41.8418 79.8203 42.4629 79.8203 43.0137C79.8203 43.5527 79.832 43.9395 79.8555 44.1738C79.8203 44.2676 79.7676 44.3496 79.6973 44.4199C79.627 44.4902 79.5449 44.543 79.4512 44.5781C79.3691 44.6016 79.2871 44.6074 79.2051 44.5957C79.123 44.5723 79.0469 44.5078 78.9766 44.4023C78.9766 44.2734 78.9648 44.0098 78.9414 43.6113C78.918 43.2129 78.8887 42.75 78.8535 42.2227C78.8184 41.6836 78.7773 41.1152 78.7305 40.5176C78.6953 39.9082 78.6602 39.3398 78.625 38.8125C78.6016 38.2734 78.5781 37.8047 78.5547 37.4062C78.5312 37.0078 78.5137 36.7441 78.502 36.6152C78.2559 36.1816 78.0098 35.9355 77.7637 35.877C77.5293 35.8184 77.2891 35.8945 77.043 36.1055C76.8086 36.3164 76.5801 36.6387 76.3574 37.0723C76.1348 37.5059 75.9238 37.998 75.7246 38.5488C75.5254 39.0879 75.3379 39.6562 75.1621 40.2539C74.9863 40.8516 74.834 41.4316 74.7051 41.9941C74.5762 42.5449 74.4648 43.0488 74.3711 43.5059C74.2891 43.9512 74.2363 44.2969 74.2129 44.543C74.1777 44.625 74.1016 44.707 73.9844 44.7891C73.8789 44.8594 73.7617 44.9121 73.6328 44.9473C73.5156 44.9824 73.3926 44.9941 73.2637 44.9824C73.1465 44.959 73.0586 44.8887 73 44.7715ZM82.1758 51.873C83.207 51.8145 84.0156 51.5449 84.6016 51.0645C85.1992 50.584 85.6445 49.9629 85.9375 49.2012C86.2305 48.4395 86.4062 47.5664 86.4648 46.582C86.5234 45.6094 86.5293 44.6016 86.4824 43.5586C86.4355 42.5156 86.3652 41.4727 86.2715 40.4297C86.1895 39.375 86.1543 38.3965 86.166 37.4941C85.6621 38.9707 85.1875 40.166 84.7422 41.0801C84.2969 41.9824 83.8809 42.668 83.4941 43.1367C83.1191 43.5938 82.7734 43.875 82.457 43.9805C82.1523 44.0742 81.8828 44.0566 81.6484 43.9277C81.4141 43.7871 81.2207 43.5703 81.0684 43.2773C80.9277 42.9727 80.8281 42.6621 80.7695 42.3457C80.793 41.8066 80.8984 41.2148 81.0859 40.5703C81.2852 39.9141 81.5371 39.2754 81.8418 38.6543C82.1582 38.0215 82.5215 37.4355 82.9316 36.8965C83.3418 36.3457 83.7754 35.918 84.2324 35.6133C84.6895 35.2969 85.1641 35.1328 85.6562 35.1211C86.1484 35.0977 86.623 35.2852 87.0801 35.6836C87.0918 35.6953 87.1094 35.8535 87.1328 36.1582C87.168 36.4512 87.2031 36.8438 87.2383 37.3359C87.2852 37.8164 87.332 38.3613 87.3789 38.9707C87.4375 39.5684 87.4902 40.1777 87.5371 40.7988C87.584 41.4082 87.625 41.9941 87.6602 42.5566C87.6953 43.1191 87.7305 43.6055 87.7656 44.0156C87.8125 44.6836 87.7832 45.3926 87.6777 46.1426C87.584 46.8926 87.4316 47.6191 87.2207 48.3223C87.0098 49.0371 86.7402 49.7051 86.4121 50.3262C86.0957 50.9473 85.7266 51.457 85.3047 51.8555C84.8945 52.2539 84.4316 52.5059 83.916 52.6113C83.4121 52.7285 82.873 52.6406 82.2988 52.3477C82.2637 52.3477 82.2109 52.3418 82.1406 52.3301C82.0703 52.3301 82.0117 52.3125 81.9648 52.2773C81.9297 52.2422 81.9238 52.1953 81.9473 52.1367C81.9707 52.0781 82.0469 51.9902 82.1758 51.873ZM81.6836 42.2227C81.8008 42.5859 81.9531 42.7734 82.1406 42.7852C82.3398 42.7852 82.5508 42.6621 82.7734 42.416C82.9961 42.1582 83.2363 41.8008 83.4941 41.3438C83.7637 40.8867 84.0273 40.3887 84.2852 39.8496C84.543 39.3105 84.7949 38.7598 85.041 38.1973C85.2988 37.623 85.5391 37.0898 85.7617 36.5977C85.7617 36.4688 85.7324 36.3516 85.6738 36.2461C85.6152 36.1289 85.4863 36.0938 85.2871 36.1406C84.959 36.2109 84.6367 36.3691 84.3203 36.6152C84.0156 36.8613 83.7285 37.166 83.459 37.5293C83.2012 37.8809 82.9609 38.2734 82.7383 38.707C82.5273 39.1289 82.3398 39.5566 82.1758 39.9902C82.0234 40.4121 81.9004 40.8164 81.8066 41.2031C81.7246 41.5898 81.6836 41.9297 81.6836 42.2227Z" fill="#383838"/>
</svg>
