<svg width="189" height="157" viewBox="0 0 189 157" fill="none" xmlns="http://www.w3.org/2000/svg">
<path d="M78.9316 112.494C78.8145 112.553 78.7031 112.617 78.5977 112.688C78.5039 112.746 78.4102 112.805 78.3164 112.863C78.2227 112.91 78.1289 112.945 78.0352 112.969C77.9414 112.992 77.8418 112.992 77.7363 112.969C77.666 112.969 77.6074 112.928 77.5605 112.846C77.5137 112.752 77.4785 112.652 77.4551 112.547C77.4199 112.43 77.3965 112.318 77.3848 112.213C77.373 112.096 77.373 112.008 77.3848 111.949L79.0723 110.982L79.1777 106.482C79.2012 106.33 79.2949 106.271 79.459 106.307C79.623 106.33 79.793 106.365 79.9688 106.412C79.9922 106.412 80.0273 106.424 80.0742 106.447C80.1328 106.459 80.1738 106.471 80.1973 106.482C80.1738 106.799 80.1445 107.145 80.1094 107.52C80.0859 107.883 80.0625 108.252 80.0391 108.627C80.0156 108.99 79.998 109.348 79.9863 109.699C79.9863 110.051 80.0039 110.367 80.0391 110.648L82.6758 109.91C82.7227 109.898 82.7578 109.934 82.7812 110.016C82.8164 110.086 82.8457 110.174 82.8691 110.279C82.9043 110.385 82.9277 110.49 82.9395 110.596C82.9512 110.701 82.957 110.754 82.957 110.754L79.9688 112.02C79.9688 112.125 79.9746 112.377 79.9863 112.775C80.0098 113.174 80.0332 113.648 80.0566 114.199C80.0801 114.738 80.1035 115.324 80.127 115.957C80.1504 116.578 80.1738 117.158 80.1973 117.697C80.2207 118.236 80.2383 118.711 80.25 119.121C80.2617 119.52 80.2676 119.771 80.2676 119.877C80.2441 120.229 80.1387 120.404 79.9512 120.404C79.7754 120.404 79.582 120.316 79.3711 120.141L78.9316 112.494ZM89.6016 112.318C89.168 112.154 88.752 112.219 88.3535 112.512C87.9551 112.805 87.5742 113.221 87.2109 113.76C86.8477 114.287 86.502 114.891 86.1738 115.57C85.8457 116.25 85.541 116.895 85.2598 117.504C84.9785 118.113 84.7207 118.635 84.4863 119.068C84.2637 119.502 84.0586 119.742 83.8711 119.789C83.7305 119.789 83.6191 119.766 83.5371 119.719C83.4668 119.66 83.4316 119.525 83.4316 119.314V106.957C83.4316 106.852 83.4727 106.787 83.5547 106.764C83.6484 106.74 83.748 106.734 83.8535 106.746C83.959 106.758 84.0586 106.787 84.1523 106.834C84.2461 106.869 84.3047 106.91 84.3281 106.957L84.5566 116.854C84.6855 116.643 84.8027 116.35 84.9082 115.975C85.0254 115.588 85.1602 115.178 85.3125 114.744C85.4648 114.299 85.6406 113.859 85.8398 113.426C86.0508 112.98 86.3086 112.582 86.6133 112.23C86.918 111.879 87.2871 111.609 87.7207 111.422C88.166 111.223 88.6875 111.152 89.2852 111.211C89.6836 111.211 90.0059 111.34 90.252 111.598C90.498 111.844 90.627 112.172 90.6387 112.582L90.8145 119.596C90.8145 119.643 90.8027 119.713 90.7793 119.807C90.7676 119.889 90.7207 119.959 90.6387 120.018C90.5684 120.088 90.4629 120.129 90.3223 120.141C90.1934 120.164 90.0234 120.135 89.8125 120.053L89.6016 112.318ZM91.9746 119.648C91.9746 118.887 91.957 118.084 91.9219 117.24C91.8984 116.396 91.8691 115.547 91.834 114.691C91.8105 113.824 91.8047 112.975 91.8164 112.143C91.8281 111.311 91.8809 110.531 91.9746 109.805C91.998 109.793 92.0508 109.787 92.1328 109.787C92.2266 109.775 92.291 109.77 92.3262 109.77C92.4902 109.77 92.6191 109.799 92.7129 109.857C92.8184 109.904 92.8711 110.016 92.8711 110.191C92.8711 110.883 92.8652 111.639 92.8535 112.459C92.8535 113.268 92.8477 114.094 92.8359 114.938C92.8359 115.77 92.8359 116.596 92.8359 117.416C92.8359 118.236 92.8477 118.98 92.8711 119.648C92.8828 119.848 92.8418 119.977 92.748 120.035C92.666 120.105 92.5605 120.141 92.4316 120.141C92.291 120.141 92.1738 120.105 92.0801 120.035C91.9863 119.977 91.9512 119.848 91.9746 119.648ZM91.5879 107.062C91.5879 106.922 91.6348 106.828 91.7285 106.781C91.8223 106.734 91.9277 106.711 92.0449 106.711C92.2793 106.711 92.4258 106.787 92.4844 106.939C92.543 107.092 92.5723 107.268 92.5723 107.467C92.502 107.596 92.4141 107.689 92.3086 107.748C92.2031 107.795 92.0918 107.807 91.9746 107.783C91.8691 107.748 91.7754 107.672 91.6934 107.555C91.623 107.438 91.5879 107.273 91.5879 107.062ZM95.4727 119.736C95.4727 119.748 95.5957 119.678 95.8418 119.525C96.0996 119.373 96.3984 119.174 96.7383 118.928C97.0898 118.67 97.4473 118.395 97.8105 118.102C98.1738 117.797 98.4727 117.51 98.707 117.24C98.9414 116.971 99.0645 116.742 99.0762 116.555C99.0996 116.355 98.9414 116.227 98.6016 116.168C98.1797 116.109 97.8223 116.115 97.5293 116.186C97.248 116.256 96.9902 116.338 96.7559 116.432C96.5215 116.525 96.2988 116.613 96.0879 116.695C95.8887 116.777 95.666 116.807 95.4199 116.783C94.9043 116.783 94.5469 116.625 94.3477 116.309C94.1602 115.98 94.0664 115.541 94.0664 114.99C94.0664 114.439 94.1895 113.918 94.4355 113.426C94.6816 112.922 94.998 112.488 95.3848 112.125C95.7715 111.762 96.2168 111.475 96.7207 111.264C97.2246 111.041 97.7402 110.93 98.2676 110.93C98.4785 110.93 98.6602 110.947 98.8125 110.982C98.9648 111.018 99.041 111.152 99.041 111.387C99.041 111.551 98.9707 111.709 98.8301 111.861C98.6895 112.002 98.5312 112.072 98.3555 112.072C98.3438 112.072 98.3145 112.066 98.2676 112.055C98.2207 112.031 98.1738 112.002 98.127 111.967C98.0801 111.932 98.0332 111.908 97.9863 111.896C97.9395 111.873 97.9102 111.861 97.8984 111.861C97.5234 111.756 97.1602 111.809 96.8086 112.02C96.457 112.23 96.1406 112.518 95.8594 112.881C95.5898 113.232 95.373 113.619 95.209 114.041C95.0449 114.451 94.9629 114.82 94.9629 115.148C94.9629 115.277 94.9863 115.383 95.0332 115.465C95.0918 115.535 95.1621 115.588 95.2441 115.623C95.3379 115.658 95.4375 115.682 95.543 115.693C95.6602 115.693 95.7773 115.693 95.8945 115.693C96.1289 115.693 96.3633 115.658 96.5977 115.588C96.8438 115.518 97.0781 115.436 97.3008 115.342C97.5352 115.248 97.7695 115.166 98.0039 115.096C98.25 115.025 98.502 114.99 98.7598 114.99C98.877 114.99 99.0059 115.025 99.1465 115.096C99.2871 115.154 99.416 115.248 99.5332 115.377C99.6504 115.494 99.75 115.635 99.832 115.799C99.9141 115.951 99.9609 116.121 99.9727 116.309C100.043 116.473 100.02 116.689 99.9023 116.959C99.7969 117.229 99.6328 117.516 99.4102 117.82C99.1875 118.125 98.918 118.436 98.6016 118.752C98.2852 119.057 97.9688 119.338 97.6523 119.596C97.3359 119.842 97.0254 120.041 96.7207 120.193C96.416 120.357 96.1582 120.434 95.9473 120.422C95.7129 120.422 95.5723 120.352 95.5254 120.211C95.4902 120.07 95.4727 119.912 95.4727 119.736ZM108.779 115.957C108.814 115.535 108.85 115.078 108.885 114.586C108.92 114.082 108.973 113.584 109.043 113.092C109.125 112.6 109.225 112.131 109.342 111.686C109.471 111.24 109.635 110.848 109.834 110.508C110.045 110.156 110.303 109.881 110.607 109.682C110.912 109.471 111.281 109.371 111.715 109.383C112.008 109.383 112.23 109.506 112.383 109.752C112.547 109.998 112.658 110.297 112.717 110.648C112.787 111 112.822 111.363 112.822 111.738C112.834 112.102 112.84 112.4 112.84 112.635C112.605 112.635 112.412 112.535 112.26 112.336C112.107 112.125 111.99 111.885 111.908 111.615C111.826 111.346 111.768 111.082 111.732 110.824L111.68 110.314C111.668 110.314 111.645 110.314 111.609 110.314C111.586 110.303 111.568 110.297 111.557 110.297C111.357 110.297 111.17 110.408 110.994 110.631C110.83 110.854 110.672 111.141 110.52 111.492C110.379 111.832 110.256 112.219 110.15 112.652C110.045 113.074 109.957 113.49 109.887 113.9C109.816 114.311 109.758 114.691 109.711 115.043C109.676 115.383 109.658 115.646 109.658 115.834C109.635 116.139 109.635 116.473 109.658 116.836C109.682 117.199 109.752 117.539 109.869 117.855C109.986 118.172 110.15 118.447 110.361 118.682C110.572 118.904 110.854 119.057 111.205 119.139C111.639 119.139 111.99 119.08 112.26 118.963C112.529 118.846 112.746 118.688 112.91 118.488C113.086 118.289 113.221 118.066 113.314 117.82C113.408 117.574 113.496 117.322 113.578 117.064C113.672 116.795 113.766 116.531 113.859 116.273C113.953 116.016 114.088 115.775 114.264 115.553C114.404 115.518 114.504 115.523 114.562 115.57C114.633 115.605 114.68 115.658 114.703 115.729C114.727 115.799 114.738 115.881 114.738 115.975V116.168C114.738 116.66 114.656 117.135 114.492 117.592C114.328 118.049 114.088 118.459 113.771 118.822C113.455 119.174 113.074 119.461 112.629 119.684C112.195 119.895 111.697 120 111.135 120C110.666 120 110.273 119.854 109.957 119.561C109.652 119.256 109.412 118.893 109.236 118.471C109.072 118.049 108.955 117.609 108.885 117.152C108.814 116.684 108.779 116.285 108.779 115.957ZM115.793 117.592C115.711 117.053 115.67 116.531 115.67 116.027C115.67 115.512 115.699 114.99 115.758 114.463C115.828 113.936 115.922 113.391 116.039 112.828C116.168 112.254 116.314 111.639 116.479 110.982C116.479 110.854 116.514 110.736 116.584 110.631C116.654 110.514 116.748 110.42 116.865 110.35C116.982 110.268 117.105 110.203 117.234 110.156C117.363 110.109 117.486 110.086 117.604 110.086C117.861 110.086 118.096 110.168 118.307 110.332C118.518 110.496 118.705 110.695 118.869 110.93C119.045 111.164 119.191 111.416 119.309 111.686C119.438 111.943 119.543 112.166 119.625 112.354C119.719 112.764 119.783 113.232 119.818 113.76C119.865 114.275 119.871 114.803 119.836 115.342C119.801 115.881 119.719 116.414 119.59 116.941C119.461 117.457 119.279 117.932 119.045 118.365C118.811 118.799 118.506 119.162 118.131 119.455C117.768 119.748 117.334 119.93 116.83 120C116.561 120 116.355 119.912 116.215 119.736C116.074 119.549 115.969 119.326 115.898 119.068C115.84 118.799 115.805 118.529 115.793 118.26C115.793 117.99 115.793 117.768 115.793 117.592ZM116.689 117.539C116.689 117.656 116.689 117.768 116.689 117.873C116.701 117.979 116.713 118.084 116.725 118.189C116.748 118.283 116.771 118.389 116.795 118.506C116.83 118.611 116.871 118.734 116.918 118.875H117.023C117.305 118.875 117.545 118.781 117.744 118.594C117.943 118.406 118.113 118.166 118.254 117.873C118.395 117.568 118.512 117.234 118.605 116.871C118.699 116.496 118.77 116.133 118.816 115.781C118.875 115.418 118.91 115.084 118.922 114.779C118.945 114.463 118.957 114.211 118.957 114.023V113.672C118.957 113.52 118.951 113.35 118.939 113.162C118.928 112.963 118.904 112.764 118.869 112.564C118.846 112.354 118.805 112.166 118.746 112.002C118.688 111.826 118.611 111.686 118.518 111.58C118.424 111.475 118.301 111.422 118.148 111.422C117.891 111.34 117.668 111.357 117.48 111.475C117.305 111.592 117.158 111.791 117.041 112.072C116.936 112.342 116.854 112.676 116.795 113.074C116.736 113.473 116.701 113.912 116.689 114.393C116.678 114.873 116.672 115.383 116.672 115.922C116.684 116.461 116.689 117 116.689 117.539ZM125.074 117.961C125.027 118.102 124.91 118.295 124.723 118.541C124.547 118.775 124.336 119.016 124.09 119.262C123.844 119.496 123.586 119.707 123.316 119.895C123.059 120.07 122.83 120.158 122.631 120.158C122.256 120.158 121.945 119.982 121.699 119.631C121.465 119.279 121.283 118.828 121.154 118.277C121.025 117.727 120.938 117.117 120.891 116.449C120.844 115.77 120.814 115.107 120.803 114.463C120.791 113.818 120.785 113.232 120.785 112.705C120.785 112.178 120.768 111.779 120.732 111.51C120.779 111.393 120.838 111.322 120.908 111.299C120.99 111.275 121.084 111.264 121.189 111.264C121.283 111.264 121.365 111.275 121.436 111.299C121.518 111.322 121.588 111.393 121.646 111.51C121.646 111.639 121.646 111.855 121.646 112.16C121.658 112.465 121.676 112.811 121.699 113.197C121.723 113.572 121.746 113.971 121.77 114.393C121.793 114.803 121.811 115.195 121.822 115.57C121.846 115.945 121.863 116.285 121.875 116.59C121.898 116.883 121.916 117.1 121.928 117.24C121.939 117.322 121.951 117.457 121.963 117.645C121.986 117.832 122.016 118.031 122.051 118.242C122.098 118.441 122.15 118.623 122.209 118.787C122.279 118.951 122.367 119.039 122.473 119.051C122.648 119.051 122.824 118.975 123 118.822C123.188 118.67 123.369 118.477 123.545 118.242C123.721 118.008 123.885 117.75 124.037 117.469C124.189 117.188 124.324 116.918 124.441 116.66C124.57 116.391 124.664 116.15 124.723 115.939C124.793 115.729 124.834 115.576 124.846 115.482C124.869 115.283 124.893 115.002 124.916 114.639C124.939 114.264 124.957 113.865 124.969 113.443C124.98 113.021 124.986 112.623 124.986 112.248C124.998 111.873 125.004 111.586 125.004 111.387L125.971 111.439C125.982 112.389 125.977 113.25 125.953 114.023C125.93 114.785 125.924 115.506 125.936 116.186C125.947 116.854 126 117.504 126.094 118.137C126.188 118.77 126.357 119.426 126.604 120.105C126.568 120.141 126.498 120.188 126.393 120.246C126.287 120.316 126.211 120.352 126.164 120.352C125.871 120.352 125.672 120.252 125.566 120.053C125.473 119.865 125.408 119.643 125.373 119.385C125.35 119.115 125.326 118.852 125.303 118.594C125.291 118.324 125.215 118.113 125.074 117.961ZM127.957 119.104C128.039 118.564 128.092 117.891 128.115 117.082C128.15 116.273 128.162 115.412 128.15 114.498C128.15 113.584 128.133 112.641 128.098 111.668C128.062 110.695 128.016 109.775 127.957 108.908C127.898 108.029 127.828 107.244 127.746 106.553C127.676 105.861 127.6 105.316 127.518 104.918C127.623 104.848 127.711 104.795 127.781 104.76C127.863 104.713 127.957 104.689 128.062 104.689C128.145 104.689 128.215 104.707 128.273 104.742C128.332 104.766 128.379 104.824 128.414 104.918C128.648 107.215 128.807 109.529 128.889 111.861C128.982 114.193 129.053 116.514 129.1 118.822C129.1 118.928 129.1 119.074 129.1 119.262C129.1 119.438 129.094 119.531 129.082 119.543C128.918 119.625 128.771 119.666 128.643 119.666C128.514 119.654 128.396 119.619 128.291 119.561C128.186 119.49 128.104 119.414 128.045 119.332C127.986 119.25 127.957 119.174 127.957 119.104ZM133.916 116.783C133.799 117.053 133.646 117.363 133.459 117.715C133.283 118.066 133.072 118.4 132.826 118.717C132.592 119.033 132.316 119.303 132 119.525C131.684 119.748 131.332 119.859 130.945 119.859C130.77 119.859 130.629 119.842 130.523 119.807C130.43 119.76 130.342 119.695 130.26 119.613C130.189 119.531 130.119 119.432 130.049 119.314C129.99 119.197 129.914 119.068 129.82 118.928C129.785 118.354 129.762 117.738 129.75 117.082C129.75 116.414 129.785 115.752 129.855 115.096C129.926 114.428 130.043 113.801 130.207 113.215C130.383 112.629 130.623 112.131 130.928 111.721C131.244 111.311 131.637 111.018 132.105 110.842C132.574 110.666 133.143 110.654 133.811 110.807C133.846 110.479 133.852 110.039 133.828 109.488C133.805 108.938 133.77 108.357 133.723 107.748C133.676 107.139 133.629 106.553 133.582 105.99C133.535 105.416 133.506 104.947 133.494 104.584C133.494 104.479 133.541 104.402 133.635 104.355C133.74 104.297 133.852 104.262 133.969 104.25C134.086 104.238 134.197 104.238 134.303 104.25C134.42 104.262 134.496 104.279 134.531 104.303C134.508 105.744 134.502 107.162 134.514 108.557C134.525 109.939 134.537 111.322 134.549 112.705C134.572 114.076 134.596 115.441 134.619 116.801C134.643 118.16 134.654 119.52 134.654 120.879C134.654 121.008 134.643 121.143 134.619 121.283C134.607 121.436 134.508 121.512 134.32 121.512C134.25 121.512 134.18 121.488 134.109 121.441C134.039 121.406 133.992 121.348 133.969 121.266L133.916 116.783ZM133.16 111.686C132.797 111.662 132.457 111.809 132.141 112.125C131.836 112.43 131.566 112.828 131.332 113.32C131.109 113.812 130.928 114.357 130.787 114.955C130.646 115.541 130.559 116.109 130.523 116.66C130.5 117.199 130.535 117.68 130.629 118.102C130.734 118.523 130.916 118.811 131.174 118.963C131.432 118.963 131.672 118.863 131.895 118.664C132.117 118.453 132.322 118.189 132.51 117.873C132.697 117.557 132.861 117.205 133.002 116.818C133.143 116.42 133.26 116.039 133.354 115.676C133.459 115.312 133.535 114.984 133.582 114.691C133.641 114.387 133.67 114.158 133.67 114.006C133.67 113.889 133.676 113.701 133.688 113.443C133.699 113.186 133.693 112.928 133.67 112.67C133.646 112.412 133.594 112.184 133.512 111.984C133.441 111.785 133.324 111.686 133.16 111.686ZM144.146 119.877C144.088 118.951 144.064 117.967 144.076 116.924C144.1 115.881 144.129 114.756 144.164 113.549C144.199 112.342 144.229 111.035 144.252 109.629C144.287 108.211 144.293 106.664 144.27 104.988C144.398 104.988 144.533 104.982 144.674 104.971C144.814 104.947 144.938 104.941 145.043 104.953C145.16 104.965 145.254 105 145.324 105.059C145.406 105.117 145.447 105.223 145.447 105.375C145.447 105.809 145.43 106.312 145.395 106.887C145.371 107.449 145.336 108.07 145.289 108.75C145.242 109.418 145.201 110.139 145.166 110.912C145.143 111.686 145.131 112.5 145.131 113.355C145.541 112.816 145.922 112.377 146.273 112.037C146.625 111.697 146.959 111.428 147.275 111.229C147.592 111.018 147.902 110.889 148.207 110.842C148.512 110.783 148.811 110.766 149.104 110.789C149.443 110.789 149.719 110.883 149.93 111.07C150.152 111.258 150.322 111.492 150.439 111.773C150.557 112.055 150.639 112.371 150.686 112.723C150.732 113.062 150.756 113.396 150.756 113.725C150.756 113.959 150.738 114.211 150.703 114.48C150.68 114.738 150.615 115.025 150.51 115.342C150.404 115.658 150.24 115.986 150.018 116.326C149.807 116.654 149.508 117.006 149.121 117.381C148.734 117.756 148.242 118.143 147.645 118.541C147.059 118.939 146.344 119.35 145.5 119.771C145.219 119.854 144.99 119.906 144.814 119.93C144.65 119.941 144.516 119.947 144.41 119.947C144.316 119.936 144.246 119.924 144.199 119.912C144.164 119.9 144.146 119.889 144.146 119.877ZM144.902 118.822C144.961 118.787 145.119 118.711 145.377 118.594C145.635 118.465 145.939 118.301 146.291 118.102C146.643 117.902 147.023 117.662 147.434 117.381C147.844 117.1 148.219 116.771 148.559 116.396C148.91 116.021 149.209 115.6 149.455 115.131C149.701 114.662 149.848 114.146 149.895 113.584C149.895 113.42 149.871 113.244 149.824 113.057C149.777 112.869 149.701 112.693 149.596 112.529C149.502 112.365 149.379 112.23 149.227 112.125C149.074 112.008 148.893 111.949 148.682 111.949C148.248 111.949 147.838 112.066 147.451 112.301C147.076 112.535 146.73 112.828 146.414 113.18C146.098 113.531 145.816 113.912 145.57 114.322C145.324 114.721 145.125 115.09 144.973 115.43L144.902 118.822ZM152.338 116.203C152.279 116.215 152.191 116.232 152.074 116.256C151.957 116.279 151.834 116.285 151.705 116.273C151.576 116.262 151.465 116.227 151.371 116.168C151.266 116.109 151.213 116.01 151.213 115.869C151.213 115.787 151.23 115.729 151.266 115.693C151.301 115.658 151.359 115.605 151.441 115.535C151.699 115.324 151.916 115.055 152.092 114.727C152.279 114.387 152.449 114.029 152.602 113.654C152.754 113.268 152.912 112.887 153.076 112.512C153.252 112.125 153.451 111.779 153.674 111.475C153.896 111.17 154.172 110.924 154.5 110.736C154.828 110.549 155.232 110.461 155.713 110.473C155.912 110.473 156.135 110.52 156.381 110.613C156.627 110.707 156.855 110.836 157.066 111C157.277 111.152 157.453 111.34 157.594 111.562C157.734 111.785 157.805 112.031 157.805 112.301C157.863 112.395 157.805 112.529 157.629 112.705C157.465 112.881 157.236 113.074 156.943 113.285C156.65 113.484 156.316 113.695 155.941 113.918C155.578 114.129 155.227 114.328 154.887 114.516C154.547 114.703 154.248 114.867 153.99 115.008C153.732 115.148 153.562 115.254 153.48 115.324C153.422 115.441 153.375 115.576 153.34 115.729C153.305 115.881 153.275 116.027 153.252 116.168C153.24 116.297 153.229 116.42 153.217 116.537C153.217 116.643 153.217 116.725 153.217 116.783C153.217 117.006 153.205 117.252 153.182 117.521C153.17 117.791 153.182 118.049 153.217 118.295C153.264 118.529 153.363 118.729 153.516 118.893C153.668 119.045 153.926 119.121 154.289 119.121C154.676 119.121 155.039 119.027 155.379 118.84C155.719 118.641 156.035 118.4 156.328 118.119C156.621 117.838 156.885 117.533 157.119 117.205C157.365 116.877 157.582 116.572 157.77 116.291C157.969 115.998 158.145 115.758 158.297 115.57C158.449 115.383 158.578 115.289 158.684 115.289C158.801 115.289 158.924 115.312 159.053 115.359C159.193 115.395 159.264 115.488 159.264 115.641C159.264 115.852 159.176 116.104 159 116.396C158.836 116.689 158.613 117 158.332 117.328C158.062 117.656 157.746 117.984 157.383 118.312C157.031 118.629 156.674 118.916 156.311 119.174C155.947 119.42 155.59 119.625 155.238 119.789C154.887 119.941 154.576 120.018 154.307 120.018C153.779 120.018 153.381 119.889 153.111 119.631C152.842 119.373 152.648 119.051 152.531 118.664C152.426 118.277 152.367 117.867 152.355 117.434C152.355 116.988 152.35 116.578 152.338 116.203ZM155.572 111.457C155.373 111.457 155.162 111.557 154.939 111.756C154.717 111.943 154.506 112.178 154.307 112.459C154.119 112.729 153.961 113.01 153.832 113.303C153.715 113.584 153.656 113.818 153.656 114.006C153.832 114.006 154.084 113.941 154.412 113.812C154.752 113.672 155.086 113.502 155.414 113.303C155.742 113.104 156.029 112.893 156.275 112.67C156.521 112.447 156.645 112.236 156.645 112.037C156.645 111.932 156.604 111.844 156.521 111.773C156.439 111.703 156.34 111.645 156.223 111.598C156.117 111.551 156.006 111.516 155.889 111.492C155.771 111.469 155.666 111.457 155.572 111.457ZM172.764 119.93L168.229 112.67C168.217 112.658 168.205 112.617 168.193 112.547C168.182 112.465 168.176 112.4 168.176 112.354C168.176 112.201 168.199 112.072 168.246 111.967C168.305 111.85 168.445 111.791 168.668 111.791C168.715 111.791 168.797 111.82 168.914 111.879C169.031 111.926 169.102 111.973 169.125 112.02C169.383 112.43 169.646 112.887 169.916 113.391C170.197 113.895 170.484 114.398 170.777 114.902C171.082 115.406 171.398 115.893 171.727 116.361C172.055 116.818 172.4 117.211 172.764 117.539L173.186 110.648C173.197 110.648 173.227 110.648 173.273 110.648C173.332 110.637 173.373 110.631 173.396 110.631C173.502 110.631 173.607 110.648 173.713 110.684C173.818 110.707 173.895 110.783 173.941 110.912C173.953 111.334 173.953 111.855 173.941 112.477C173.941 113.098 173.93 113.736 173.906 114.393C173.895 115.049 173.877 115.682 173.854 116.291C173.842 116.889 173.83 117.369 173.818 117.732C173.807 117.967 173.783 118.318 173.748 118.787C173.725 119.256 173.689 119.783 173.643 120.369C173.607 120.967 173.561 121.594 173.502 122.25C173.455 122.906 173.408 123.527 173.361 124.113C173.314 124.699 173.273 125.227 173.238 125.695C173.203 126.176 173.174 126.521 173.15 126.732H172.236L172.764 119.93ZM174.768 117.592C174.686 117.053 174.645 116.531 174.645 116.027C174.645 115.512 174.674 114.99 174.732 114.463C174.803 113.936 174.896 113.391 175.014 112.828C175.143 112.254 175.289 111.639 175.453 110.982C175.453 110.854 175.488 110.736 175.559 110.631C175.629 110.514 175.723 110.42 175.84 110.35C175.957 110.268 176.08 110.203 176.209 110.156C176.338 110.109 176.461 110.086 176.578 110.086C176.836 110.086 177.07 110.168 177.281 110.332C177.492 110.496 177.68 110.695 177.844 110.93C178.02 111.164 178.166 111.416 178.283 111.686C178.412 111.943 178.518 112.166 178.6 112.354C178.693 112.764 178.758 113.232 178.793 113.76C178.84 114.275 178.846 114.803 178.811 115.342C178.775 115.881 178.693 116.414 178.564 116.941C178.436 117.457 178.254 117.932 178.02 118.365C177.785 118.799 177.48 119.162 177.105 119.455C176.742 119.748 176.309 119.93 175.805 120C175.535 120 175.33 119.912 175.189 119.736C175.049 119.549 174.943 119.326 174.873 119.068C174.814 118.799 174.779 118.529 174.768 118.26C174.768 117.99 174.768 117.768 174.768 117.592ZM175.664 117.539C175.664 117.656 175.664 117.768 175.664 117.873C175.676 117.979 175.688 118.084 175.699 118.189C175.723 118.283 175.746 118.389 175.77 118.506C175.805 118.611 175.846 118.734 175.893 118.875H175.998C176.279 118.875 176.52 118.781 176.719 118.594C176.918 118.406 177.088 118.166 177.229 117.873C177.369 117.568 177.486 117.234 177.58 116.871C177.674 116.496 177.744 116.133 177.791 115.781C177.85 115.418 177.885 115.084 177.896 114.779C177.92 114.463 177.932 114.211 177.932 114.023V113.672C177.932 113.52 177.926 113.35 177.914 113.162C177.902 112.963 177.879 112.764 177.844 112.564C177.82 112.354 177.779 112.166 177.721 112.002C177.662 111.826 177.586 111.686 177.492 111.58C177.398 111.475 177.275 111.422 177.123 111.422C176.865 111.34 176.643 111.357 176.455 111.475C176.279 111.592 176.133 111.791 176.016 112.072C175.91 112.342 175.828 112.676 175.77 113.074C175.711 113.473 175.676 113.912 175.664 114.393C175.652 114.873 175.646 115.383 175.646 115.922C175.658 116.461 175.664 117 175.664 117.539ZM184.049 117.961C184.002 118.102 183.885 118.295 183.697 118.541C183.521 118.775 183.311 119.016 183.064 119.262C182.818 119.496 182.561 119.707 182.291 119.895C182.033 120.07 181.805 120.158 181.605 120.158C181.23 120.158 180.92 119.982 180.674 119.631C180.439 119.279 180.258 118.828 180.129 118.277C180 117.727 179.912 117.117 179.865 116.449C179.818 115.77 179.789 115.107 179.777 114.463C179.766 113.818 179.76 113.232 179.76 112.705C179.76 112.178 179.742 111.779 179.707 111.51C179.754 111.393 179.812 111.322 179.883 111.299C179.965 111.275 180.059 111.264 180.164 111.264C180.258 111.264 180.34 111.275 180.41 111.299C180.492 111.322 180.562 111.393 180.621 111.51C180.621 111.639 180.621 111.855 180.621 112.16C180.633 112.465 180.65 112.811 180.674 113.197C180.697 113.572 180.721 113.971 180.744 114.393C180.768 114.803 180.785 115.195 180.797 115.57C180.82 115.945 180.838 116.285 180.85 116.59C180.873 116.883 180.891 117.1 180.902 117.24C180.914 117.322 180.926 117.457 180.938 117.645C180.961 117.832 180.99 118.031 181.025 118.242C181.072 118.441 181.125 118.623 181.184 118.787C181.254 118.951 181.342 119.039 181.447 119.051C181.623 119.051 181.799 118.975 181.975 118.822C182.162 118.67 182.344 118.477 182.52 118.242C182.695 118.008 182.859 117.75 183.012 117.469C183.164 117.188 183.299 116.918 183.416 116.66C183.545 116.391 183.639 116.15 183.697 115.939C183.768 115.729 183.809 115.576 183.82 115.482C183.844 115.283 183.867 115.002 183.891 114.639C183.914 114.264 183.932 113.865 183.943 113.443C183.955 113.021 183.961 112.623 183.961 112.248C183.973 111.873 183.979 111.586 183.979 111.387L184.945 111.439C184.957 112.389 184.951 113.25 184.928 114.023C184.904 114.785 184.898 115.506 184.91 116.186C184.922 116.854 184.975 117.504 185.068 118.137C185.162 118.77 185.332 119.426 185.578 120.105C185.543 120.141 185.473 120.188 185.367 120.246C185.262 120.316 185.186 120.352 185.139 120.352C184.846 120.352 184.646 120.252 184.541 120.053C184.447 119.865 184.383 119.643 184.348 119.385C184.324 119.115 184.301 118.852 184.277 118.594C184.266 118.324 184.189 118.113 184.049 117.961ZM186.404 111.404C186.404 110.326 186.428 109.26 186.475 108.205C186.521 107.139 186.58 106.043 186.65 104.918C186.686 104.824 186.727 104.766 186.773 104.742C186.82 104.707 186.885 104.689 186.967 104.689C187.084 104.689 187.166 104.725 187.213 104.795C187.26 104.854 187.289 104.924 187.301 105.006C187.324 105.088 187.33 105.182 187.318 105.287C187.318 105.381 187.318 105.463 187.318 105.533V110.912C187.318 111.123 187.336 111.346 187.371 111.58L187.477 112.283C187.523 112.518 187.553 112.74 187.564 112.951C187.588 113.15 187.576 113.32 187.529 113.461C187.506 113.59 187.436 113.701 187.318 113.795C187.213 113.889 187.096 113.936 186.967 113.936C186.756 113.936 186.609 113.83 186.527 113.619C186.445 113.408 186.393 113.162 186.369 112.881C186.357 112.6 186.357 112.318 186.369 112.037C186.393 111.756 186.404 111.545 186.404 111.404ZM187.512 119.578V119.297C187.512 119.238 187.518 119.18 187.529 119.121C187.541 119.051 187.564 118.992 187.6 118.945C187.635 118.898 187.688 118.875 187.758 118.875C187.992 118.875 188.127 118.934 188.162 119.051C188.209 119.156 188.232 119.285 188.232 119.438C188.232 119.602 188.209 119.736 188.162 119.842C188.127 119.947 187.992 120 187.758 120C187.688 120 187.635 119.977 187.6 119.93C187.564 119.883 187.541 119.83 187.529 119.771C187.518 119.701 187.512 119.637 187.512 119.578ZM78.2988 138.646C78.3223 138.588 78.3691 138.523 78.4395 138.453C78.5098 138.371 78.5859 138.289 78.668 138.207C78.7617 138.125 78.8496 138.049 78.9316 137.979C79.0254 137.896 79.1074 137.838 79.1777 137.803C79.2715 137.873 79.3477 137.961 79.4062 138.066C79.4766 138.172 79.5586 138.354 79.6523 138.611C79.7461 138.857 79.8574 139.197 79.9863 139.631C80.127 140.064 80.3086 140.645 80.5312 141.371C80.7539 142.098 81.0293 142.994 81.3574 144.061C81.6973 145.115 82.1074 146.387 82.5879 147.875C82.6348 147.84 82.7168 147.652 82.834 147.312C82.9629 146.973 83.1152 146.551 83.291 146.047C83.4668 145.531 83.6543 144.963 83.8535 144.342C84.0645 143.709 84.2695 143.076 84.4688 142.443C84.668 141.799 84.8555 141.189 85.0312 140.615C85.2188 140.029 85.377 139.525 85.5059 139.104C85.541 138.939 85.5645 138.781 85.5762 138.629C85.5996 138.465 85.6289 138.318 85.6641 138.189C85.6992 138.061 85.7578 137.955 85.8398 137.873C85.9336 137.779 86.0859 137.732 86.2969 137.732C86.4609 137.662 86.6133 137.744 86.7539 137.979C86.8945 138.213 87.0352 138.553 87.1758 138.998C87.3281 139.443 87.4863 139.965 87.6504 140.562C87.8145 141.148 87.9961 141.764 88.1953 142.408C88.4062 143.053 88.6348 143.697 88.8809 144.342C89.1387 144.975 89.4375 145.555 89.7773 146.082L92.2559 135.957C92.2793 135.863 92.3203 135.787 92.3789 135.729C92.4492 135.67 92.5254 135.641 92.6074 135.641C92.7012 135.641 92.7949 135.682 92.8887 135.764C92.9824 135.846 93.0703 135.98 93.1523 136.168L90.6914 146.082C90.6914 146.234 90.6738 146.416 90.6387 146.627C90.6035 146.826 90.5566 147.025 90.498 147.225C90.4395 147.412 90.3691 147.576 90.2871 147.717C90.2168 147.857 90.1289 147.945 90.0234 147.98C89.9297 148.004 89.8242 147.963 89.707 147.857C89.5898 147.74 89.4668 147.518 89.3379 147.189C88.6816 146.029 88.0957 144.822 87.5801 143.568C87.0645 142.303 86.5957 140.967 86.1738 139.561L83.9238 146.979C83.8535 147.494 83.748 147.91 83.6074 148.227C83.4785 148.531 83.332 148.76 83.168 148.912C83.0156 149.064 82.8574 149.158 82.6934 149.193C82.5293 149.229 82.3828 149.234 82.2539 149.211C82.125 149.199 82.0254 149.164 81.9551 149.105C81.8965 149.059 81.8789 149.023 81.9023 149C81.6328 148.637 81.3984 148.203 81.1992 147.699C81.0117 147.184 80.8359 146.627 80.6719 146.029C80.5195 145.42 80.3672 144.787 80.2148 144.131C80.0625 143.463 79.8984 142.807 79.7227 142.162C79.5586 141.506 79.3594 140.879 79.125 140.281C78.8906 139.684 78.6152 139.139 78.2988 138.646ZM94.7871 145.203C94.7285 145.215 94.6406 145.232 94.5234 145.256C94.4062 145.279 94.2832 145.285 94.1543 145.273C94.0254 145.262 93.9141 145.227 93.8203 145.168C93.7148 145.109 93.6621 145.01 93.6621 144.869C93.6621 144.787 93.6797 144.729 93.7148 144.693C93.75 144.658 93.8086 144.605 93.8906 144.535C94.1484 144.324 94.3652 144.055 94.541 143.727C94.7285 143.387 94.8984 143.029 95.0508 142.654C95.2031 142.268 95.3613 141.887 95.5254 141.512C95.7012 141.125 95.9004 140.779 96.123 140.475C96.3457 140.17 96.6211 139.924 96.9492 139.736C97.2773 139.549 97.6816 139.461 98.1621 139.473C98.3613 139.473 98.584 139.52 98.8301 139.613C99.0762 139.707 99.3047 139.836 99.5156 140C99.7266 140.152 99.9023 140.34 100.043 140.562C100.184 140.785 100.254 141.031 100.254 141.301C100.312 141.395 100.254 141.529 100.078 141.705C99.9141 141.881 99.6855 142.074 99.3926 142.285C99.0996 142.484 98.7656 142.695 98.3906 142.918C98.0273 143.129 97.6758 143.328 97.3359 143.516C96.9961 143.703 96.6973 143.867 96.4395 144.008C96.1816 144.148 96.0117 144.254 95.9297 144.324C95.8711 144.441 95.8242 144.576 95.7891 144.729C95.7539 144.881 95.7246 145.027 95.7012 145.168C95.6895 145.297 95.6777 145.42 95.666 145.537C95.666 145.643 95.666 145.725 95.666 145.783C95.666 146.006 95.6543 146.252 95.6309 146.521C95.6191 146.791 95.6309 147.049 95.666 147.295C95.7129 147.529 95.8125 147.729 95.9648 147.893C96.1172 148.045 96.375 148.121 96.7383 148.121C97.125 148.121 97.4883 148.027 97.8281 147.84C98.168 147.641 98.4844 147.4 98.7773 147.119C99.0703 146.838 99.334 146.533 99.5684 146.205C99.8145 145.877 100.031 145.572 100.219 145.291C100.418 144.998 100.594 144.758 100.746 144.57C100.898 144.383 101.027 144.289 101.133 144.289C101.25 144.289 101.373 144.312 101.502 144.359C101.643 144.395 101.713 144.488 101.713 144.641C101.713 144.852 101.625 145.104 101.449 145.396C101.285 145.689 101.062 146 100.781 146.328C100.512 146.656 100.195 146.984 99.832 147.312C99.4805 147.629 99.123 147.916 98.7598 148.174C98.3965 148.42 98.0391 148.625 97.6875 148.789C97.3359 148.941 97.0254 149.018 96.7559 149.018C96.2285 149.018 95.8301 148.889 95.5605 148.631C95.291 148.373 95.0977 148.051 94.9805 147.664C94.875 147.277 94.8164 146.867 94.8047 146.434C94.8047 145.988 94.7988 145.578 94.7871 145.203ZM98.0215 140.457C97.8223 140.457 97.6113 140.557 97.3887 140.756C97.166 140.943 96.9551 141.178 96.7559 141.459C96.5684 141.729 96.4102 142.01 96.2812 142.303C96.1641 142.584 96.1055 142.818 96.1055 143.006C96.2812 143.006 96.5332 142.941 96.8613 142.812C97.2012 142.672 97.5352 142.502 97.8633 142.303C98.1914 142.104 98.4785 141.893 98.7246 141.67C98.9707 141.447 99.0938 141.236 99.0938 141.037C99.0938 140.932 99.0527 140.844 98.9707 140.773C98.8887 140.703 98.7891 140.645 98.6719 140.598C98.5664 140.551 98.4551 140.516 98.3379 140.492C98.2207 140.469 98.1152 140.457 98.0215 140.457ZM103.172 142.25C103.16 142.156 103.143 142.01 103.119 141.811C103.096 141.6 103.066 141.371 103.031 141.125C103.008 140.879 102.979 140.615 102.943 140.334C102.908 140.053 102.873 139.789 102.838 139.543C102.814 139.285 102.791 139.057 102.768 138.857C102.744 138.658 102.727 138.512 102.715 138.418V138.295C102.715 138.143 102.744 138.008 102.803 137.891C102.873 137.773 102.99 137.715 103.154 137.715C103.342 137.715 103.488 137.791 103.594 137.943C103.699 138.096 103.775 138.283 103.822 138.506C103.881 138.729 103.916 138.975 103.928 139.244C103.939 139.514 103.939 139.771 103.928 140.018C103.928 140.264 103.916 140.48 103.893 140.668C103.881 140.844 103.875 140.961 103.875 141.02V141.406C103.875 141.582 103.869 141.775 103.857 141.986C103.857 142.186 103.852 142.373 103.84 142.549C103.84 142.725 103.84 142.848 103.84 142.918C103.664 142.906 103.512 142.836 103.383 142.707C103.266 142.578 103.195 142.426 103.172 142.25ZM105.387 140.527V140.387C105.387 140.27 105.428 140.188 105.51 140.141C105.604 140.094 105.709 140.07 105.826 140.07C105.92 140.07 106.008 140.082 106.09 140.105C106.172 140.117 106.236 140.182 106.283 140.299C106.318 140.475 106.354 140.721 106.389 141.037C106.424 141.342 106.465 141.682 106.512 142.057C106.559 142.432 106.605 142.83 106.652 143.252C106.711 143.662 106.764 144.055 106.811 144.43C106.869 144.793 106.928 145.121 106.986 145.414C107.045 145.707 107.109 145.93 107.18 146.082C107.145 144.957 107.18 143.984 107.285 143.164C107.391 142.332 107.59 141.658 107.883 141.143C108.188 140.615 108.598 140.252 109.113 140.053C109.641 139.842 110.297 139.795 111.082 139.912C111.445 139.912 111.627 140.105 111.627 140.492C111.627 140.645 111.527 140.75 111.328 140.809C111.129 140.855 110.906 140.891 110.66 140.914C110.414 140.926 110.174 140.943 109.939 140.967C109.705 140.99 109.535 141.049 109.43 141.143C109.008 141.377 108.709 141.74 108.533 142.232C108.369 142.725 108.252 143.305 108.182 143.973C108.111 144.641 108.059 145.373 108.023 146.17C108 146.955 107.924 147.764 107.795 148.596C107.795 148.713 107.748 148.801 107.654 148.859C107.561 148.918 107.443 148.947 107.303 148.947C107.174 148.947 107.045 148.918 106.916 148.859C106.799 148.801 106.705 148.713 106.635 148.596L105.387 140.527ZM113.033 145.203C112.975 145.215 112.887 145.232 112.77 145.256C112.652 145.279 112.529 145.285 112.4 145.273C112.271 145.262 112.16 145.227 112.066 145.168C111.961 145.109 111.908 145.01 111.908 144.869C111.908 144.787 111.926 144.729 111.961 144.693C111.996 144.658 112.055 144.605 112.137 144.535C112.395 144.324 112.611 144.055 112.787 143.727C112.975 143.387 113.145 143.029 113.297 142.654C113.449 142.268 113.607 141.887 113.771 141.512C113.947 141.125 114.146 140.779 114.369 140.475C114.592 140.17 114.867 139.924 115.195 139.736C115.523 139.549 115.928 139.461 116.408 139.473C116.607 139.473 116.83 139.52 117.076 139.613C117.322 139.707 117.551 139.836 117.762 140C117.973 140.152 118.148 140.34 118.289 140.562C118.43 140.785 118.5 141.031 118.5 141.301C118.559 141.395 118.5 141.529 118.324 141.705C118.16 141.881 117.932 142.074 117.639 142.285C117.346 142.484 117.012 142.695 116.637 142.918C116.273 143.129 115.922 143.328 115.582 143.516C115.242 143.703 114.943 143.867 114.686 144.008C114.428 144.148 114.258 144.254 114.176 144.324C114.117 144.441 114.07 144.576 114.035 144.729C114 144.881 113.971 145.027 113.947 145.168C113.936 145.297 113.924 145.42 113.912 145.537C113.912 145.643 113.912 145.725 113.912 145.783C113.912 146.006 113.9 146.252 113.877 146.521C113.865 146.791 113.877 147.049 113.912 147.295C113.959 147.529 114.059 147.729 114.211 147.893C114.363 148.045 114.621 148.121 114.984 148.121C115.371 148.121 115.734 148.027 116.074 147.84C116.414 147.641 116.73 147.4 117.023 147.119C117.316 146.838 117.58 146.533 117.814 146.205C118.061 145.877 118.277 145.572 118.465 145.291C118.664 144.998 118.84 144.758 118.992 144.57C119.145 144.383 119.273 144.289 119.379 144.289C119.496 144.289 119.619 144.312 119.748 144.359C119.889 144.395 119.959 144.488 119.959 144.641C119.959 144.852 119.871 145.104 119.695 145.396C119.531 145.689 119.309 146 119.027 146.328C118.758 146.656 118.441 146.984 118.078 147.312C117.727 147.629 117.369 147.916 117.006 148.174C116.643 148.42 116.285 148.625 115.934 148.789C115.582 148.941 115.271 149.018 115.002 149.018C114.475 149.018 114.076 148.889 113.807 148.631C113.537 148.373 113.344 148.051 113.227 147.664C113.121 147.277 113.062 146.867 113.051 146.434C113.051 145.988 113.045 145.578 113.033 145.203ZM116.268 140.457C116.068 140.457 115.857 140.557 115.635 140.756C115.412 140.943 115.201 141.178 115.002 141.459C114.814 141.729 114.656 142.01 114.527 142.303C114.41 142.584 114.352 142.818 114.352 143.006C114.527 143.006 114.779 142.941 115.107 142.812C115.447 142.672 115.781 142.502 116.109 142.303C116.438 142.104 116.725 141.893 116.971 141.67C117.217 141.447 117.34 141.236 117.34 141.037C117.34 140.932 117.299 140.844 117.217 140.773C117.135 140.703 117.035 140.645 116.918 140.598C116.812 140.551 116.701 140.516 116.584 140.492C116.467 140.469 116.361 140.457 116.268 140.457ZM135.252 141.318C134.818 141.154 134.402 141.219 134.004 141.512C133.605 141.805 133.225 142.221 132.861 142.76C132.498 143.287 132.152 143.891 131.824 144.57C131.496 145.25 131.191 145.895 130.91 146.504C130.629 147.113 130.371 147.635 130.137 148.068C129.914 148.502 129.709 148.742 129.521 148.789C129.381 148.789 129.27 148.766 129.188 148.719C129.117 148.66 129.082 148.525 129.082 148.314V135.957C129.082 135.852 129.123 135.787 129.205 135.764C129.299 135.74 129.398 135.734 129.504 135.746C129.609 135.758 129.709 135.787 129.803 135.834C129.896 135.869 129.955 135.91 129.979 135.957L130.207 145.854C130.336 145.643 130.453 145.35 130.559 144.975C130.676 144.588 130.811 144.178 130.963 143.744C131.115 143.299 131.291 142.859 131.49 142.426C131.701 141.98 131.959 141.582 132.264 141.23C132.568 140.879 132.938 140.609 133.371 140.422C133.816 140.223 134.338 140.152 134.936 140.211C135.334 140.211 135.656 140.34 135.902 140.598C136.148 140.844 136.277 141.172 136.289 141.582L136.465 148.596C136.465 148.643 136.453 148.713 136.43 148.807C136.418 148.889 136.371 148.959 136.289 149.018C136.219 149.088 136.113 149.129 135.973 149.141C135.844 149.164 135.674 149.135 135.463 149.053L135.252 141.318ZM137.625 148.648C137.625 147.887 137.607 147.084 137.572 146.24C137.549 145.396 137.52 144.547 137.484 143.691C137.461 142.824 137.455 141.975 137.467 141.143C137.479 140.311 137.531 139.531 137.625 138.805C137.648 138.793 137.701 138.787 137.783 138.787C137.877 138.775 137.941 138.77 137.977 138.77C138.141 138.77 138.27 138.799 138.363 138.857C138.469 138.904 138.521 139.016 138.521 139.191C138.521 139.883 138.516 140.639 138.504 141.459C138.504 142.268 138.498 143.094 138.486 143.938C138.486 144.77 138.486 145.596 138.486 146.416C138.486 147.236 138.498 147.98 138.521 148.648C138.533 148.848 138.492 148.977 138.398 149.035C138.316 149.105 138.211 149.141 138.082 149.141C137.941 149.141 137.824 149.105 137.73 149.035C137.637 148.977 137.602 148.848 137.625 148.648ZM137.238 136.062C137.238 135.922 137.285 135.828 137.379 135.781C137.473 135.734 137.578 135.711 137.695 135.711C137.93 135.711 138.076 135.787 138.135 135.939C138.193 136.092 138.223 136.268 138.223 136.467C138.152 136.596 138.064 136.689 137.959 136.748C137.854 136.795 137.742 136.807 137.625 136.783C137.52 136.748 137.426 136.672 137.344 136.555C137.273 136.438 137.238 136.273 137.238 136.062ZM139.734 140.527V140.387C139.734 140.27 139.775 140.188 139.857 140.141C139.951 140.094 140.057 140.07 140.174 140.07C140.268 140.07 140.355 140.082 140.438 140.105C140.52 140.117 140.584 140.182 140.631 140.299C140.666 140.475 140.701 140.721 140.736 141.037C140.771 141.342 140.812 141.682 140.859 142.057C140.906 142.432 140.953 142.83 141 143.252C141.059 143.662 141.111 144.055 141.158 144.43C141.217 144.793 141.275 145.121 141.334 145.414C141.393 145.707 141.457 145.93 141.527 146.082C141.492 144.957 141.527 143.984 141.633 143.164C141.738 142.332 141.938 141.658 142.23 141.143C142.535 140.615 142.945 140.252 143.461 140.053C143.988 139.842 144.645 139.795 145.43 139.912C145.793 139.912 145.975 140.105 145.975 140.492C145.975 140.645 145.875 140.75 145.676 140.809C145.477 140.855 145.254 140.891 145.008 140.914C144.762 140.926 144.521 140.943 144.287 140.967C144.053 140.99 143.883 141.049 143.777 141.143C143.355 141.377 143.057 141.74 142.881 142.232C142.717 142.725 142.6 143.305 142.529 143.973C142.459 144.641 142.406 145.373 142.371 146.17C142.348 146.955 142.271 147.764 142.143 148.596C142.143 148.713 142.096 148.801 142.002 148.859C141.908 148.918 141.791 148.947 141.65 148.947C141.521 148.947 141.393 148.918 141.264 148.859C141.146 148.801 141.053 148.713 140.982 148.596L139.734 140.527ZM147.152 148.648C147.152 147.887 147.135 147.084 147.1 146.24C147.076 145.396 147.047 144.547 147.012 143.691C146.988 142.824 146.982 141.975 146.994 141.143C147.006 140.311 147.059 139.531 147.152 138.805C147.176 138.793 147.229 138.787 147.311 138.787C147.404 138.775 147.469 138.77 147.504 138.77C147.668 138.77 147.797 138.799 147.891 138.857C147.996 138.904 148.049 139.016 148.049 139.191C148.049 139.883 148.043 140.639 148.031 141.459C148.031 142.268 148.025 143.094 148.014 143.938C148.014 144.77 148.014 145.596 148.014 146.416C148.014 147.236 148.025 147.98 148.049 148.648C148.061 148.848 148.02 148.977 147.926 149.035C147.844 149.105 147.738 149.141 147.609 149.141C147.469 149.141 147.352 149.105 147.258 149.035C147.164 148.977 147.129 148.848 147.152 148.648ZM146.766 136.062C146.766 135.922 146.812 135.828 146.906 135.781C147 135.734 147.105 135.711 147.223 135.711C147.457 135.711 147.604 135.787 147.662 135.939C147.721 136.092 147.75 136.268 147.75 136.467C147.68 136.596 147.592 136.689 147.486 136.748C147.381 136.795 147.27 136.807 147.152 136.783C147.047 136.748 146.953 136.672 146.871 136.555C146.801 136.438 146.766 136.273 146.766 136.062ZM150 148.771C149.871 147.189 149.754 145.607 149.648 144.025C149.555 142.432 149.449 140.779 149.332 139.068C149.332 138.787 149.484 138.646 149.789 138.646H149.93C149.965 138.646 150.006 138.693 150.053 138.787C150.1 138.881 150.146 139.057 150.193 139.314C150.252 139.561 150.311 139.941 150.369 140.457C150.439 140.961 150.521 141.623 150.615 142.443C150.709 143.264 150.814 144.289 150.932 145.52C151.178 144.723 151.371 143.949 151.512 143.199C151.652 142.449 151.834 141.77 152.057 141.16C152.279 140.539 152.59 139.994 152.988 139.525C153.398 139.057 153.984 138.711 154.746 138.488C155.168 138.559 155.508 138.816 155.766 139.262C156.023 139.695 156.229 140.234 156.381 140.879C156.533 141.523 156.639 142.227 156.697 142.988C156.756 143.738 156.791 144.459 156.803 145.15C156.814 145.842 156.82 146.463 156.82 147.014C156.82 147.553 156.832 147.939 156.855 148.174C156.82 148.268 156.768 148.35 156.697 148.42C156.627 148.49 156.545 148.543 156.451 148.578C156.369 148.602 156.287 148.607 156.205 148.596C156.123 148.572 156.047 148.508 155.977 148.402C155.977 148.273 155.965 148.01 155.941 147.611C155.918 147.213 155.889 146.75 155.854 146.223C155.818 145.684 155.777 145.115 155.73 144.518C155.695 143.908 155.66 143.34 155.625 142.812C155.602 142.273 155.578 141.805 155.555 141.406C155.531 141.008 155.514 140.744 155.502 140.615C155.256 140.182 155.01 139.936 154.764 139.877C154.529 139.818 154.289 139.895 154.043 140.105C153.809 140.316 153.58 140.639 153.357 141.072C153.135 141.506 152.924 141.998 152.725 142.549C152.525 143.088 152.338 143.656 152.162 144.254C151.986 144.852 151.834 145.432 151.705 145.994C151.576 146.545 151.465 147.049 151.371 147.506C151.289 147.951 151.236 148.297 151.213 148.543C151.178 148.625 151.102 148.707 150.984 148.789C150.879 148.859 150.762 148.912 150.633 148.947C150.516 148.982 150.393 148.994 150.264 148.982C150.146 148.959 150.059 148.889 150 148.771ZM159.176 155.873C160.207 155.814 161.016 155.545 161.602 155.064C162.199 154.584 162.645 153.963 162.938 153.201C163.23 152.439 163.406 151.566 163.465 150.582C163.523 149.609 163.529 148.602 163.482 147.559C163.436 146.516 163.365 145.473 163.271 144.43C163.189 143.375 163.154 142.396 163.166 141.494C162.662 142.971 162.188 144.166 161.742 145.08C161.297 145.982 160.881 146.668 160.494 147.137C160.119 147.594 159.773 147.875 159.457 147.98C159.152 148.074 158.883 148.057 158.648 147.928C158.414 147.787 158.221 147.57 158.068 147.277C157.928 146.973 157.828 146.662 157.77 146.346C157.793 145.807 157.898 145.215 158.086 144.57C158.285 143.914 158.537 143.275 158.842 142.654C159.158 142.021 159.521 141.436 159.932 140.896C160.342 140.346 160.775 139.918 161.232 139.613C161.689 139.297 162.164 139.133 162.656 139.121C163.148 139.098 163.623 139.285 164.08 139.684C164.092 139.695 164.109 139.854 164.133 140.158C164.168 140.451 164.203 140.844 164.238 141.336C164.285 141.816 164.332 142.361 164.379 142.971C164.438 143.568 164.49 144.178 164.537 144.799C164.584 145.408 164.625 145.994 164.66 146.557C164.695 147.119 164.73 147.605 164.766 148.016C164.812 148.684 164.783 149.393 164.678 150.143C164.584 150.893 164.432 151.619 164.221 152.322C164.01 153.037 163.74 153.705 163.412 154.326C163.096 154.947 162.727 155.457 162.305 155.855C161.895 156.254 161.432 156.506 160.916 156.611C160.412 156.729 159.873 156.641 159.299 156.348C159.264 156.348 159.211 156.342 159.141 156.33C159.07 156.33 159.012 156.312 158.965 156.277C158.93 156.242 158.924 156.195 158.947 156.137C158.971 156.078 159.047 155.99 159.176 155.873ZM158.684 146.223C158.801 146.586 158.953 146.773 159.141 146.785C159.34 146.785 159.551 146.662 159.773 146.416C159.996 146.158 160.236 145.801 160.494 145.344C160.764 144.887 161.027 144.389 161.285 143.85C161.543 143.311 161.795 142.76 162.041 142.197C162.299 141.623 162.539 141.09 162.762 140.598C162.762 140.469 162.732 140.352 162.674 140.246C162.615 140.129 162.486 140.094 162.287 140.141C161.959 140.211 161.637 140.369 161.32 140.615C161.016 140.861 160.729 141.166 160.459 141.529C160.201 141.881 159.961 142.273 159.738 142.707C159.527 143.129 159.34 143.557 159.176 143.99C159.023 144.412 158.9 144.816 158.807 145.203C158.725 145.59 158.684 145.93 158.684 146.223Z" fill="#383838"/>
<path d="M108.362 86.1383C50.9879 23.4524 30.4836 49.5705 27.4731 60.6554C18.7751 92.6812 98.128 78.152 14.6968 22.2461" stroke="#595959" stroke-dasharray="3 3"/>
</svg>
