<svg width="190" height="217" viewBox="0 0 190 217" fill="none" xmlns="http://www.w3.org/2000/svg">
<rect x="2.42578" width="174.222" height="4" rx="2" transform="rotate(37.3379 2.42578 0)" fill="#BE263B"/>
<rect x="118.281" y="71.4492" width="96.6213" height="4" rx="2" transform="rotate(37.3379 118.281 71.4492)" fill="#BE263B"/>
<rect x="107.754" y="209.891" width="96.6213" height="4" rx="2" transform="rotate(37.3379 107.754 209.891)" fill="#BE263B"/>
<rect x="76.2324" y="188.316" width="30.9318" height="4" rx="2" transform="rotate(37.3379 76.2324 188.316)" fill="#BE263B"/>
<rect x="54.4258" y="190" width="96.6213" height="4" rx="2" transform="rotate(37.3379 54.4258 190)" fill="#BE263B"/>
<rect x="129.426" y="47" width="96.6213" height="4" rx="2" transform="rotate(37.3379 129.426 47)" fill="#BE263B"/>
<rect x="55.6387" y="154.492" width="96.6213" height="4" rx="2" transform="rotate(37.3379 55.6387 154.492)" fill="#BE263B"/>
<rect x="120.223" y="186.879" width="96.6213" height="4" rx="2" transform="rotate(37.3379 120.223 186.879)" fill="#BE263B"/>
<rect x="123.045" y="124.008" width="96.6213" height="4" rx="2" transform="rotate(37.3379 123.045 124.008)" fill="#BE263B"/>
<rect x="110.936" y="115.703" width="5.86557" height="4" rx="2" transform="rotate(37.3379 110.936 115.703)" fill="#BE263B"/>
<rect x="183.426" y="104" width="5.86557" height="4" rx="2" transform="rotate(37.3379 183.426 104)" fill="#BE263B"/>
<rect x="55.998" y="75.1895" width="60.8243" height="4" rx="2" transform="rotate(37.3379 55.998 75.1895)" fill="#BE263B"/>
<rect x="73.4004" y="136.273" width="60.8243" height="4" rx="2" transform="rotate(37.3379 73.4004 136.273)" fill="#BE263B"/>
<rect x="148.643" y="111.973" width="129.617" height="4" rx="2" transform="rotate(37.3379 148.643 111.973)" fill="#BE263B"/>
<rect x="137.379" y="120.166" width="129.617" height="4" rx="2" transform="rotate(37.3379 137.379 120.166)" fill="#BE263B"/>
<rect x="170.426" y="62" width="129.617" height="4" rx="2" transform="rotate(37.3379 170.426 62)" fill="#BE263B"/>
<rect x="18.9902" y="61.8203" width="174.222" height="4" rx="2" transform="rotate(37.3379 18.9902 61.8203)" fill="#BE263B"/>
<rect x="139.609" y="185.826" width="96.6213" height="4" rx="2" transform="rotate(37.3379 139.609 185.826)" fill="#BE263B"/>
<rect x="127.5" y="177.523" width="5.86557" height="4" rx="2" transform="rotate(37.3379 127.5 177.523)" fill="#BE263B"/>
<rect x="165.207" y="173.791" width="129.617" height="4" rx="2" transform="rotate(37.3379 165.207 173.791)" fill="#BE263B"/>
<rect x="153.943" y="181.984" width="129.617" height="4" rx="2" transform="rotate(37.3379 153.943 181.984)" fill="#BE263B"/>
<rect x="45.5605" y="98.1816" width="129.617" height="4" rx="2" transform="rotate(37.3379 45.5605 98.1816)" fill="#BE263B"/>
</svg>
